<svg viewBox="0 0 1000 1000" xmlns="http://www.w3.org/2000/svg" fill="none">
  <!-- Circuit geometry: bacinger/f1-circuits (MIT) -->
  <path d="M428.34,700.04 L385.97,658.2 L323.22,594.2 L319.6,590.51 L318.06,585.45 L318.31,583.23 L319.35,581.17 L321.47,576 L325.02,569.72 L327.22,561.7 L328.47,551.84 L328.72,544.61 L326.52,530.52 L323.77,523.35 L319.47,515.85 L314.43,509.84 L303.27,498.71 L290.02,486.57 L271.35,468.53 L248.61,444.26 L239.48,434.5 L215.23,404.06 L203.19,387.96 L190.74,368.39 L166.78,326.44 L160.86,314.68 L157.28,305.87 L157.74,300.96 L159.78,297.48 L164.82,294.95 L181.74,291.99 L213.73,285.45 L217.44,283.97 L219.77,282.44 L221.36,280.23 L223.69,273.31 L224.15,266.03 L221.98,203.57 L221.23,180.67 L221.77,178.71 L228.57,170.8 L234.77,166.11 L282.35,131.76 L292.89,125.69 L342.01,105.64 L360.55,98.94 L377.34,88.81 L390.09,81.06 L395.8,80.05 L400.34,80 L404.55,82.48 L410.09,89.02 L416.8,94.93 L425.96,101.42 L437.63,105.8 L452.75,107.65 L466.42,108.28 L478,110.02 L490.92,114.51 L502.33,119.94 L514.92,129.28 L523.41,136.88 L531.87,147.9 L539.79,161.62 L544.25,175.6 L547.04,186.42 L548.45,195.49 L559.95,258.33 L560.04,266.19 L558.79,275.64 L555.7,285.29 L552.08,293.52 L545.62,302.7 L539.66,309.98 L533.12,318.85 L529.83,325.28 L526.96,332.56 L524.79,340.85 L511.75,410.02 L510.75,418.46 L510.21,428.48 L510.21,437.66 L511,454.34 L512.92,467.26 L516.46,482.09 L520.83,496.44 L526.5,508.78 L532.41,520.23 L542.25,535.64 L548.83,545.35 L561.99,559.33 L605.53,598.06 L612.41,603.38 L618.86,606.92 L623.61,609.19 L632.82,611.98 L641.65,612.72 L652.4,612.3 L662.11,612.25 L671.53,611.88 L679.53,612.14 L686.36,613.83 L693.19,617.15 L697.86,619.79 L706.15,627.18 L754.27,668.17 L772.18,683.16 L780.93,693.66 L787.43,701.2 L794.52,712.44 L801.68,729.11 L808.85,750.01 L827.85,815.75 L839.22,857.53 L841.39,869.14 L842.6,875 L842.72,878.58 L839.72,880.17 L830.8,883.6 L787.97,900.9 L743.85,918.47 L740.44,919.42 L734.94,920 L728.23,919.53 L721.31,916.68 L714.31,911.98 L710.19,908.18 L706.23,902.01 L680.07,853.73 L664.24,828.09 L662.11,824.66 L659.9,822.66 L657.69,821.81 L653.9,821.65 L651.24,823.18 L622.82,855.37 L618.86,859.33 L614.62,861.81 L609.28,863.92 L604.53,865.02 L600.28,864.97 L595.2,863.97 L588.16,861.49 L582.95,857.8 L580.91,855.79 L428.34,700.04 Z" stroke="#FFFFFF" stroke-width="7" stroke-linejoin="round" stroke-linecap="round" fill="none" />
</svg>
