<svg viewBox="0 0 1000 1000" xmlns="http://www.w3.org/2000/svg" fill="none">
  <!-- Circuit geometry: bacinger/f1-circuits (MIT) -->
  <path d="M852.76,350.29 L914.25,323.93 L917.51,321.34 L919.58,317.53 L920,313.85 L918.96,308.53 L906.46,276.17 L885.34,235.23 L867.93,195.6 L865.05,193.7 L861.38,193.06 L802.56,216.6 L730.62,244.45 L632.46,288.58 L547.85,327.34 L542.31,333.16 L542.31,341.07 L569.97,412.82 L570.18,418.41 L565.89,423.32 L517.73,446.04 L490.48,461.03 L453.78,484.57 L451.53,487.57 L452.36,491.89 L458.49,505.34 L458.28,509.2 L455.2,512.2 L441.28,524.43 L357.67,589.14 L343.54,601.95 L337.59,606.04 L331.63,605.81 L326.72,600.45 L304.59,535.33 L301.93,532.56 L297.84,531.7 L292.51,531.7 L284.51,526.79 L279.6,525.52 L274.47,525.7 L269.56,526.15 L264.22,524.02 L261.56,519.93 L256.85,504.52 L254.6,501.7 L251.31,499.57 L246.39,499.34 L211.15,511.57 L154.99,539.01 L117.91,561.28 L110.54,567.28 L104.79,574.96 L99.46,585.91 L81.25,647.8 L80,656.16 L85.95,741.64 L87.79,747 L92.29,752.32 L168.32,792.17 L189.65,801.62 L201.32,805.9 L207.86,806.94 L215.44,805.67 L220.77,802.03 L224.27,798.17 L247.22,755.77 L252.56,745.91 L258.68,738 L324.05,678.43 L329.38,670.93 L332.05,663.66 L337.8,624.44 L340.25,616.76 L345.17,609.45 L350.92,604.31 L444.99,531.29 L457.69,522.93 L472.03,515.2 L485.35,508.79 L527.77,491.03 L565.47,473.44 L657.46,434.04 L694.78,417.09 L790.27,376.42 L852.76,350.29 Z" stroke="#FFFFFF" stroke-width="7" stroke-linejoin="round" stroke-linecap="round" fill="none" />
</svg>
