<svg viewBox="0 0 1000 1000" xmlns="http://www.w3.org/2000/svg" fill="none">
  <!-- Circuit geometry: bacinger/f1-circuits (MIT) -->
  <path d="M697.46,455.12 L608.59,596.24 L559.45,675.35 L508.36,756.05 L454.88,842 L436.62,871.02 L430.79,877.54 L425.56,882.15 L421.03,884.22 L412.94,885.26 L405.57,884.78 L400.1,883.35 L394.8,880.48 L376.36,868.72 L370.53,866.09 L360.06,863.79 L351.62,863.79 L339.54,866.41 L332.7,870.71 L281.54,908.95 L274.41,912.53 L267.03,915.23 L257.16,918.57 L247.82,920 L239.67,920 L230.8,919.52 L220.93,918.25 L211.35,915.15 L199.81,909.43 L193.86,905.05 L188.39,900.28 L183.45,895.83 L170.37,878.66 L163.94,865.38 L159.3,850.59 L158.11,840.17 L156.92,827.77 L157.22,814.65 L159.18,800.74 L164.72,778.64 L170.78,760.83 L177.33,746.83 L184.35,735.78 L273.22,594.42 L278.57,589.41 L286.01,585.03 L299.86,581.61 L308.67,582.65 L315.81,584.8 L324.02,589.41 L333.3,596.88 L339.24,603.64 L346.38,617.95 L348.94,628.76 L349.65,645.54 L349.06,655.56 L346.56,666.85 L341.74,677.9 L332.82,694.99 L268.28,795.89 L266.49,802.73 L266.38,808.69 L267.98,815.84 L270.96,820.77 L274.23,824.91 L279.34,828.49 L285.71,830.71 L290.7,831.59 L298.85,830 L302.6,828.49 L399.62,784.6 L413.06,776.25 L426.45,765.99 L439.89,753.27 L449.41,741.74 L488.01,681.16 L492.18,672.09 L493.96,665.81 L492.36,655.88 L487.42,646.97 L479.81,639.89 L462.2,629.48 L452.62,621.69 L447.33,615.72 L442.09,608.09 L439.18,602.92 L414.91,545.04 L387.37,479.84 L385.17,468.63 L385.17,457.19 L386.3,448.36 L388.08,439.85 L393.49,429.99 L397.66,423.31 L406.58,413.54 L415.44,406.62 L724.17,248.24 L734.99,242.12 L740.64,236.07 L743.38,230.27 L744.09,223.27 L741.89,215.48 L738.26,209.28 L733.03,204.19 L725.42,198.39 L713.1,192.98 L705.49,191.15 L694.96,189.72 L685.92,189.32 L676.82,189.88 L666.88,192.42 L653.08,199.1 L643.62,204.59 L630.42,216.2 L617.33,225.58 L608.29,229.63 L594.31,230.67 L585.98,228.84 L576.05,223.75 L568.08,217.07 L563.14,209.28 L559.16,200.53 L557.91,190.91 L557.55,186.38 L560.29,173.66 L565.17,164.6 L572.78,157.2 L646.36,96.62 L653.62,90.5 L662.78,85.09 L671.11,82.15 L682.71,80.32 L694.13,80 L704.6,82.15 L713.16,85.8 L730.53,96.86 L749.92,109.34 L766.7,120.95 L777.52,127.23 L814.11,150.44 L822.91,156.65 L828.5,162.53 L833.56,169.37 L837.66,177.24 L841.05,187.73 L842.96,197.51 L843.08,211.59 L841.05,224.23 L830.88,244.34 L697.46,455.12 Z" stroke="#FFFFFF" stroke-width="7" stroke-linejoin="round" stroke-linecap="round" fill="none" />
</svg>
