<svg viewBox="0 0 1000 1000" xmlns="http://www.w3.org/2000/svg" fill="none">
  <!-- Circuit geometry: bacinger/f1-circuits (MIT) -->
  <path d="M592.16,688.24 L602.47,736.24 L610.16,771.62 L614.43,797.79 L615.01,819.37 L608.35,877.26 L609.58,884.18 L614.22,888.52 L631.4,896.12 L634.82,898.66 L636.46,903.68 L635.84,908.74 L633.42,913.81 L628.77,917.71 L622.9,920 L615.21,920 L606.74,918.15 L586.52,912.45 L572.76,907.82 L559.65,900.7 L547.11,892.42 L518.19,867.62 L501.01,851.53 L497.76,846.52 L496.98,842.37 L497.18,838.23 L500.19,829.02 L501.21,823.32 L500.6,818.69 L498.58,814.79 L465.63,774.59 L459.79,769.57 L448.65,761.73 L441.99,756.22 L434.72,746.57 L430.65,736.24 L427.82,725.67 L426.83,717.19 L427.03,654.47 L427.03,649.21 L424.81,645.07 L420.75,641.85 L413.68,640.24 L404.19,642.53 L398.72,643.22 L392.06,641.36 L386.39,637.71 L382.36,633.81 L378.71,628.99 L376.49,624.6 L373.45,615.88 L370.82,605.11 L367.81,591.76 L367.4,580.5 L363.54,532.5 L363.95,506.53 L364.57,485.62 L366.38,462.67 L368.8,444.55 L371.23,430.27 L388.2,361.85 L391.04,355.61 L395.1,353.13 L399.34,352.2 L405.59,351.72 L410.44,350.11 L415.11,347.38 L420.17,342.07 L423.99,335.88 L427.44,327.4 L444.21,259.18 L450.87,222.19 L453.09,196.22 L454.12,169.56 L453.91,160.84 L452.89,151.68 L440.56,91.01 L440.15,87.36 L440.56,84.14 L443.39,80.93 L448.86,80 L452.31,81.17 L454.73,83.9 L455.52,86.19 L456.95,99.74 L458.97,120.45 L459.79,127.32 L462.42,134.92 L471.29,153.05 L479.18,169.13 L519.01,272.04 L523.65,285.35 L582.67,567.88 L585.09,579.58 L584.51,583.47 L581.88,586.49 L577.2,588.3 L574.2,591.32 L572.97,594.73 L573.17,599.12 L583.9,648.04 L592.16,688.24 Z" stroke="#FFFFFF" stroke-width="7" stroke-linejoin="round" stroke-linecap="round" fill="none" />
</svg>
