<svg viewBox="0 0 1000 1000" xmlns="http://www.w3.org/2000/svg" fill="none">
  <!-- Circuit geometry: bacinger/f1-circuits (MIT) -->
  <path d="M233.4,208.71 L441.83,237.65 L509.44,246.52 L580.64,252.93 L614.96,257.2 L703.51,269.7 L857.83,292.62 L889.65,299.03 L895.08,301.17 L897.95,303.63 L899.42,307.58 L899.79,311.2 L893.98,349.4 L894.72,352.77 L896.55,355.81 L912.79,364.62 L917.5,367.08 L920,371.03 L920,374.72 L916.76,398.54 L911.69,419.91 L903.76,440.63 L894.72,459.27 L823.88,579.51 L738.93,712.88 L733.5,722.01 L732.76,727.52 L733.86,732.11 L736.43,735.48 L761.71,751.02 L764.21,753.48 L764.58,757.43 L762.81,760.8 L758.47,764.75 L711.08,800.49 L706.38,802.62 L702.41,803.2 L698.81,801.97 L690.14,796.47 L688.67,792.85 L688.67,785.53 L710.35,616.41 L710.05,611.23 L707.85,606.38 L704.61,602.36 L699.54,598.74 L674.26,583.13 L665.22,574.91 L659.79,569.41 L654.35,559.05 L648.55,543.77 L642.81,534.64 L636.27,528.23 L629.07,523.63 L619.3,519.36 L541.19,507.45 L532.52,504.73 L527.15,500.13 L524.58,497.09 L522.44,492.81 L512.31,461.41 L509.07,455.26 L504,449.5 L491.36,441.86 L433.53,410.72 L416.85,403.72 L392.67,397.9 L198.9,369.8 L194.93,368.31 L192.79,365.85 L190.96,361.9 L190.6,356.72 L187.36,306.93 L183.39,272.48 L181.92,268.53 L179.05,265.75 L175.08,263.94 L170.02,264.52 L164.58,269.44 L157.68,279.8 L153.71,282.84 L149.01,284.66 L143.63,284.4 L137.47,281.61 L130.26,278.25 L123.36,276.11 L90.5,272.48 L85.07,270.67 L82.5,268.53 L80.37,264.52 L80,260.57 L82.14,251.12 L86.84,238.62 L93.01,228.2 L102.05,215.7 L112.55,207.15 L125.92,200.42 L138.2,197.12 L150.11,196.8 L167.45,198.93 L233.4,208.71 Z" stroke="#FFFFFF" stroke-width="7" stroke-linejoin="round" stroke-linecap="round" fill="none" />
</svg>
