<svg viewBox="0 0 1000 1000" xmlns="http://www.w3.org/2000/svg" fill="none">
  <!-- Circuit geometry: bacinger/f1-circuits (MIT) -->
  <path d="M313.98,712.83 L175.65,602.2 L134.75,570.22 L131.06,564.06 L128.87,557.9 L129.5,550.96 L132.25,545.57 L136.25,541.95 L141.5,539.41 L149.19,538.25 L160.57,538.25 L192.27,539.02 L213.48,542.64 L232.86,548.42 L253.18,556.43 L268.56,565.14 L280.2,573.15 L393.13,662.52 L401.39,666.84 L409.39,668.69 L417.4,668.69 L423.89,666.45 L430.96,663.91 L436.47,659.59 L441.09,654.51 L444.16,649.81 L446.92,643.26 L447.85,634.17 L447.54,629.09 L445.1,622.15 L442.97,615.29 L410.64,560.44 L407.26,550.27 L406.64,542.26 L408.51,535.4 L410.95,526.7 L414.02,518.68 L449.72,447.5 L513.07,319.3 L524.45,298.96 L537.7,281.16 L554.28,261.9 L557.66,256.51 L560.15,251.04 L560.72,244.87 L558.91,237.94 L530.01,129 L529.39,120.68 L530.27,112.67 L532.45,104.65 L535.83,97.03 L541.96,90.86 L549.34,85.39 L557.03,81.46 L564.73,80 L574.29,80.31 L583.49,82.54 L594.61,87.24 L607.18,95.25 L616.12,101.42 L626.57,109.05 L637.64,117.75 L651.51,132.24 L710.55,196.18 L713.3,202.34 L714.24,207.12 L713.92,212.21 L710.86,216.52 L705.92,221.22 L701.92,225.23 L700.41,228.85 L700.72,235.4 L702.23,242.64 L723.75,323.69 L728.37,334.55 L731.75,338.94 L735.13,342.87 L739.75,346.57 L745.31,348.34 L755.76,350.5 L800.35,357.05 L809.6,360.67 L815.42,364.67 L820.35,368.68 L824.67,375.61 L826.17,381.78 L828.04,389.02 L828.04,397.03 L826.49,405.74 L815.42,483.78 L815.1,497.65 L816.04,506.36 L818.48,515.37 L821.91,524.15 L865.56,593.88 L869.88,604.35 L870.81,611.67 L871.13,618.53 L870.19,625.77 L868.63,633.09 L865.56,639.64 L860.63,646.11 L785.59,730.4 L718.86,807.75 L696.1,833.17 L690.54,836.41 L685.34,837.18 L680.4,836.41 L676.09,833.87 L671.78,829.94 L626.25,778.32 L618.88,771.08 L584.11,742.72 L577.98,739.49 L571.84,736.95 L564.41,735.87 L557.97,736.56 L549.34,740.57 L544.15,746.35 L540.46,752.59 L538.27,757.98 L537.7,765.3 L538.59,772.54 L541.65,779.4 L545.65,784.87 L614.25,840.11 L626.88,851.66 L630.57,857.9 L633.32,866.61 L634.57,876.78 L633.63,886.18 L630.57,894.19 L626.88,901.82 L621.06,908.37 L611.5,914.53 L601.67,918.54 L590.92,920 L579.54,918.54 L569.35,914.53 L559.84,907.98 L313.98,712.83 Z" stroke="#FFFFFF" stroke-width="7" stroke-linejoin="round" stroke-linecap="round" fill="none" />
</svg>
