<svg viewBox="0 0 1000 1000" xmlns="http://www.w3.org/2000/svg" fill="none">
  <!-- Circuit geometry: bacinger/f1-circuits (MIT) -->
  <path d="M286.17,682.95 L333.17,864.84 L338.15,884 L343.13,895.05 L354.39,911.8 L360.18,916.52 L368.5,919.91 L376.74,920 L385.8,918.13 L390.54,915.63 L405.22,902.09 L419.5,886.23 L425.13,882.04 L432.48,879.45 L439.9,879.01 L450.67,882.48 L473.52,896.47 L491.64,903.96 L505.1,907.43 L517.42,909.04 L528.68,909.66 L545.25,907.7 L557.89,904.94 L573.48,899.33 L588.09,890.86 L602.53,879.54 L614.2,867.24 L623.42,854.14 L630.27,841.85 L635.98,828.03 L658.34,754.16 L667.81,717.08 L683.96,654.17 L703.71,573.79 L738.39,442.08 L750.88,394.58 L759.69,361.25 L763.77,345.74 L765.32,335.94 L764.34,326.76 L762.05,320.52 L757.08,313.13 L748.1,306.89 L737.66,302.52 L722.56,299.4 L677.44,290.49 L659.81,288.53 L648.88,289.33 L635.49,291.2 L622.85,294.95 L611.67,301.54 L601.06,307.78 L590.45,316.51 L580.25,327.83 L566.3,345.56 L520.44,407.5 L493.51,445.64 L470.58,478.26 L445.45,511.23 L432.23,529.59 L422.03,543.4 L414.93,551.24 L407.02,556.14 L395.76,560.15 L383.35,561.76 L364.75,561.31 L352.35,559.26 L342.47,556.14 L333.66,552.13 L318.56,543.93 L311.06,537.25 L306.08,530.66 L301.27,521.12 L297.59,508.2 L293.02,489.13 L289.27,471.66 L284.21,439.58 L283.23,426.3 L283.48,412.85 L286.66,402.6 L291.8,397.43 L295.39,395.56 L299.88,394.04 L306,393.33 L312.44,394.93 L319.22,397.61 L337.5,411.51 L344.84,415.88 L350.55,418.28 L356.67,419.53 L362.3,419.97 L368.5,419.17 L376.99,416.05 L387.03,407.77 L392.66,399.39 L395.68,390.21 L396.17,382.37 L394.94,373.28 L391.51,366.15 L383.68,354.65 L376.58,347.52 L351.53,323.02 L338.64,308.22 L329.74,295.04 L323.3,277.39 L318.32,255.47 L316.04,242.19 L314.81,230.25 L315.63,220.45 L319.46,213.76 L322.64,209.75 L327.79,208.06 L332.03,206.99 L337.5,207.88 L343.86,210.46 L374.46,245.31 L400.9,274.54 L405.47,278.28 L415.34,285.14 L424.4,289.15 L431.91,291.38 L441.13,292.9 L449.69,293.88 L459.57,293.97 L475.07,291.74 L486.9,287.91 L499.47,280.69 L512.2,270.35 L519.3,260.99 L526.89,250.48 L547.2,218.49 L569.64,180.88 L595.02,139.8 L596.65,134.98 L597.06,129.28 L595.51,123.67 L592.57,117.61 L586.94,112.35 L573.64,105.4 L554.3,98.36 L515.05,83.56 L507.38,81.51 L497.59,80 L477.85,82.14 L460.55,85.08 L422.69,93.19 L410.12,97.47 L385.15,107.89 L372.83,113.33 L343.45,129.19 L331.78,137.12 L321.83,146.03 L311.71,155.39 L303.47,165.11 L296.13,176.51 L289.43,191.04 L284.05,206.54 L275.56,238.18 L266.34,278.01 L260.22,315.53 L249.7,355.54 L242.92,385.67 L237.05,406.52 L235.09,421.67 L234.68,442.25 L235.82,466.67 L238.52,484.94 L243.09,506.24 L251,536.89 L274.09,634.03 L286.17,682.95 Z" stroke="#FFFFFF" stroke-width="7" stroke-linejoin="round" stroke-linecap="round" fill="none" />
</svg>
