<svg viewBox="0 0 1000 1000" xmlns="http://www.w3.org/2000/svg" fill="none">
  <!-- Circuit geometry: bacinger/f1-circuits (MIT) -->
  <path d="M709.67,825.76 L733.29,799.19 L738.3,793.61 L741.88,787.55 L743.08,780.35 L740.03,773.86 L735.06,769.71 L726.13,766.33 L717.61,764.94 L709.4,765.42 L701.74,767.71 L684.94,777.82 L669.41,793.23 L663.44,797.19 L650.38,800.1 L643.33,799.95 L630.57,795.66 L623.52,791.75 L616.97,786.17 L606.11,771.48 L601.72,759.03 L598.71,390.25 L600.98,384.67 L605.41,381.86 L681.47,383.29 L704.28,383.15 L716.19,380.38 L721,376.23 L734.45,363.12 L740.5,354.58 L745.12,345.37 L748.47,337.31 L750.48,326.82 L751.86,314.32 L751.48,306.98 L747.32,304.36 L736.3,303.12 L732.44,300.68 L729.13,295.58 L727.82,287.62 L728.44,281.8 L739.11,263.34 L740.96,258.43 L745.43,249.94 L743.81,241.02 L735.14,235.29 L719.04,233.48 L598.44,230.43 L553.9,223.94 L539.18,216.84 L522.92,200.1 L508.98,172.19 L487.63,122.02 L473.92,107.57 L459.7,97.79 L445.25,92.45 L422.63,85.15 L396.97,80 L393.47,80.86 L390.12,83.43 L387.5,92.21 L384.84,98.22 L358.21,150.25 L341.65,181.21 L333.02,196.9 L324.15,212.02 L308.86,238.59 L293.14,274.31 L284.82,301.3 L275.69,332.35 L269.56,354.58 L264.97,376.71 L261.31,399.13 L257.42,431.99 L256.46,451.16 L255.46,474.01 L255.88,535.87 L256.11,571.21 L256.23,598.01 L251.1,738.09 L249.56,809.97 L249.52,845.83 L248.14,889.05 L250.56,892.53 L253.88,893.67 L261.81,893.53 L267.67,895.77 L280.85,908.98 L292.37,915.56 L307.7,918.57 L374.47,920 L461.82,918.95 L533.67,919.38 L568.77,918.9 L597.52,914.9 L627.57,909.17 L635.39,905.6 L641.71,901.64 L646.76,896.87 L709.67,825.76 Z" stroke="#FFFFFF" stroke-width="7" stroke-linejoin="round" stroke-linecap="round" fill="none" />
</svg>
