<svg viewBox="0 0 1000 1000" xmlns="http://www.w3.org/2000/svg" fill="none">
  <!-- Circuit geometry: bacinger/f1-circuits (MIT) -->
  <path d="M569.39,873.8 L483.09,888.99 L477.94,892.12 L477.12,911.79 L474.54,914.92 L460.6,917.48 L444.39,920 L430.18,919.18 L412.52,911.79 L399.99,899.83 L333.72,793.56 L297.87,737.81 L287.09,715.74 L280.53,700.7 L277.41,691.56 L269.99,663.43 L266.59,633.24 L267.72,610.5 L270.85,586.01 L279.4,562.96 L287.91,548.74 L291.35,543.92 L291.35,539.96 L286.51,537.09 L282.52,533.14 L283.11,528.26 L286.51,523.43 L288.5,517.74 L287.36,506.39 L281.39,485.6 L276.27,471.38 L268.85,459.73 L262.61,451.21 L259.21,441.25 L250.38,405.36 L245.54,392.02 L239.57,385.5 L239.29,380.93 L244.41,376.92 L253.51,369.99 L258.35,361.98 L258.35,354.03 L255.22,344.38 L240.97,318.2 L239.84,310.96 L239.29,261.47 L240.7,242.12 L246.4,234.01 L258.9,224.35 L272.84,212.96 L278.27,202.13 L277.95,189.04 L276.27,181.23 L259.21,140.01 L257.49,126.36 L258.62,112.39 L264.6,99.87 L273.7,89.09 L287.36,82.26 L302.16,80 L318.1,80.82 L333.72,88.78 L348.79,102.18 L357.89,117.53 L360.47,135.44 L359.34,151.66 L353.09,168.71 L343.68,185.08 L338.83,193.04 L291.89,251.61 L268.58,287.5 L266.59,293.76 L268.31,302.54 L278.27,311.93 L311.81,335.39 L325.48,347.35 L331.45,357.31 L334.3,367.53 L334.3,418.35 L335.98,428.31 L341.41,439.96 L349.38,452.03 L357.89,461.42 L369.57,468.56 L383.24,473.07 L446.11,473.07 L456.89,468.25 L467.98,461.99 L473.41,460.55 L478.25,464.86 L495.31,490.43 L516.64,527.85 L520.89,537.24 L526.32,545.2 L536.28,551.46 L545.92,553.16 L582.91,548.33 L600.56,548.64 L618.48,554.85 L630.43,566.66 L636.13,577.49 L656.6,692.02 L658.59,706.09 L661.17,712.91 L668.55,713.79 L679.36,705.78 L685.89,704.08 L729.7,698.69 L733.68,702.95 L742.24,731.7 L751.34,769.38 L759.85,819.43 L760.71,832.52 L753.6,840.79 L742.51,843.36 L569.39,873.8 Z" stroke="#FFFFFF" stroke-width="7" stroke-linejoin="round" stroke-linecap="round" fill="none" />
</svg>
