<svg viewBox="0 0 1000 1000" xmlns="http://www.w3.org/2000/svg" fill="none">
  <!-- Circuit geometry: bacinger/f1-circuits (MIT) -->
  <path d="M901.65,434.97 L918.37,562.68 L920,579.21 L918.37,587.37 L913.86,594.49 L893.16,626.11 L889.44,631.27 L885.52,633.17 L880.55,633.75 L869.19,633.17 L816.75,630.29 L735.89,621.67 L725.64,618.99 L719.18,615.07 L714.08,609.52 L709.84,598.41 L709.25,587.44 L709.58,580.91 L707.49,577.51 L696.19,576.72 L684.5,576.46 L624.87,573.07 L456.96,564.12 L436.65,561.7 L422.41,557.85 L407.78,550.59 L348.22,498.27 L322.75,476.52 L318.51,473.12 L312.43,472.14 L304.86,473.51 L299.18,477.3 L295.45,480.96 L284.68,513.75 L279,538.31 L264.76,612.65 L235.43,762.25 L233.8,765.38 L231.65,768.13 L227.6,771.07 L222.76,772.18 L216.82,772.05 L214.08,770.94 L207.22,762.25 L200.36,752.51 L195.27,741.47 L189.78,736.05 L163.92,715.34 L151.06,703.46 L143.02,695.68 L138.06,688.69 L133.03,671.64 L133.75,663.67 L135.19,657.6 L138.71,650.54 L136.88,646.1 L130.35,643.88 L118.34,639.76 L108.02,633.17 L95.35,624.28 L85.55,615.66 L82.02,608.41 L80.39,598.22 L80,589.27 L89.93,572.35 L129.96,500.69 L181.49,408.12 L190.63,391.4 L199.19,383.49 L202.71,380.62 L214.47,378.27 L224.85,384.67 L237.98,393.81 L291.99,450.45 L296.82,452.93 L300.81,451.95 L304.53,444.9 L325.82,403.22 L354.3,355.01 L359.52,347.24 L364.55,345.41 L373.63,349.46 L378.85,352.53 L530.37,440.19 L555.12,449.67 L572.3,452.87 L785.99,465.48 L794.28,463.84 L805.06,458.81 L813.94,452.54 L819.62,442.15 L821.06,432.29 L819.42,408.84 L813.29,376.96 L794.74,325.48 L789.71,314.51 L786.31,305.43 L784.48,294.32 L784.48,280.08 L787.62,248.4 L793.04,235.92 L800.49,228.41 L806.75,227.82 L812.44,229.32 L818.71,236.58 L822.1,241.02 L825.37,245.53 L831.25,250.49 L844.76,257.15 L856.13,260.29 L870.37,258.92 L877.68,261.86 L881.4,267.08 L883.56,275.44 L889.3,345.73 L901.65,434.97 Z" stroke="#FFFFFF" stroke-width="7" stroke-linejoin="round" stroke-linecap="round" fill="none" />
</svg>
