<svg viewBox="0 0 1000 1000" xmlns="http://www.w3.org/2000/svg" fill="none">
  <!-- Circuit geometry: bacinger/f1-circuits (MIT) -->
  <path d="M494.55,426.19 L609.31,497.85 L611.27,503.14 L610.43,508.06 L607.02,514.59 L582.58,532.75 L574.97,540.96 L572.46,555.77 L574.97,571.44 L572.57,590.79 L566.7,603.17 L544.55,620.89 L519.32,629.6 L502.94,633.27 L478.77,633.83 L459.81,630.41 L437.61,620.46 L324.97,552.9 L308.81,543.14 L300.53,541.71 L291.02,540.96 L281.51,542.21 L269.43,546 L259.25,551.72 L248.85,560.12 L238,567.34 L223.79,569.7 L210.99,568.52 L197.23,561.86 L184.31,550.29 L172.56,538.66 L159.36,532.13 L145.77,529.39 L129.39,532.25 L114.34,536.98 L101.7,542.95 L92.36,551.6 L83.47,565.53 L80,580.34 L80.39,592.72 L83.13,601.05 L87.66,606.77 L96.89,611.81 L108.02,611.81 L121.78,608.76 L137.16,608.83 L168.87,615.54 L226.93,627.3 L286.94,625.56 L378.55,621.77 L403.89,629.79 L435.21,640.99 L460.43,649.88 L494.32,660.64 L529.56,666.55 L564.96,666.99 L602.15,660.89 L636.1,648.95 L713.68,620.65 L758.7,603.48 L780.4,593.84 L835.88,564.35 L865.75,545.25 L871.73,537.17 L869.78,530.45 L864.35,525.22 L850.65,516.95 L841.08,509.8 L835.88,499.35 L834.76,488.46 L837.84,475.21 L845.22,467.81 L853.89,464.33 L879.56,465.88 L892.37,464.14 L898.02,460.47 L906.63,452.07 L920,428.18 L919.11,422.96 L912.62,420.35 L906.74,415.99 L906.52,407.1 L917.15,372.82 L916.31,366.98 L911.5,363.06 L884.76,360.63 L498.69,346.95 L190.85,333.01 L181.85,335.38 L179.95,342.47 L183.02,351.3 L193.7,360.76 L210.31,373.38 L228.16,382.96 L242.7,386.63 L255.51,385.57 L271.17,379.91 L307.69,362.75 L328.16,357.27 L353.33,355.09 L378.16,358.58 L401.59,368.34 L494.55,426.19 Z" stroke="#FFFFFF" stroke-width="7" stroke-linejoin="round" stroke-linecap="round" fill="none" />
</svg>
