<svg viewBox="0 0 1000 1000" xmlns="http://www.w3.org/2000/svg" fill="none">
  <!-- Circuit geometry: bacinger/f1-circuits (MIT) -->
  <path d="M597.19,244.12 L595.8,235.48 L597.74,227.71 L602.74,217.06 L607.45,209.57 L622.15,190.95 L696.84,89.5 L702.04,82.21 L709.74,80 L719.1,82.69 L725.62,88.06 L730.33,96.51 L731.3,106.01 L731.51,113.88 L732.27,120.31 L736.16,127.99 L740.67,133.84 L749.06,145.65 L754.74,156.11 L756.96,162.45 L759.8,166.19 L764.31,167.44 L769.51,165.9 L773.4,161.87 L774.58,156.11 L772.01,151.22 L765.42,146.42 L745.94,121.65 L743.16,115.7 L743.09,109.95 L744.62,105.53 L746.7,101.4 L755.85,96.7 L770,93.05 L777.7,90.17 L785.6,87.01 L796.56,83.17 L808.49,82.3 L814.8,85.47 L817.15,95.26 L814.93,152.46 L806.13,211.3 L796.97,248.73 L786.78,275.41 L769.31,305.93 L749.19,331.75 L720.07,363.52 L678.39,389.05 L653.57,401.24 L605.72,423.6 L573.54,434.73 L526.04,445.96 L495.46,450.76 L479.23,453.83 L476.46,458.54 L476.25,462.66 L475.28,467.46 L473.2,472.17 L466.33,474.57 L456.62,476.2 L445.88,470.05 L439.98,469.67 L354.41,480.9 L311.9,487.04 L272.79,493.19 L261.97,494.82 L254.76,496.06 L249.56,501.44 L241.37,517.56 L234.44,533.21 L228.89,548.85 L226.46,559.99 L223.9,579.37 L223.69,612.58 L224.04,620.84 L226.46,626.5 L231.32,631.97 L242.07,639.84 L249.28,646.46 L252.4,653.56 L253.65,663.83 L265.85,734.47 L268.97,746.86 L269.94,750.79 L269.67,756.07 L266.55,760.29 L259.68,765.09 L252.82,768.45 L251.22,773.25 L252.54,783.33 L260.38,806.27 L267.52,823.54 L274.8,837.17 L287.28,855.02 L302.95,870.86 L314.46,877.48 L327.36,883.53 L333.81,886.41 L337.07,890.05 L340.82,901.28 L339.01,907.23 L333.19,910.69 L307.32,917.5 L292.9,919.81 L283.4,920 L274.94,918.75 L269.6,914.72 L266.34,911.36 L266.2,903.49 L264.95,897.16 L262.46,889.38 L247.89,871.44 L237.21,854.26 L228.89,841.39 L220.09,817.02 L200.6,749.16 L195.26,727.28 L191.51,703.86 L186.66,669.69 L182.85,625.25 L182.85,596.27 L184.09,574.1 L186.52,551.06 L190.82,535.03 L195.68,520.64 L198.03,511.81 L199.21,504.03 L198.66,492.23 L198.45,484.93 L200.81,480.61 L206.84,477.73 L221.54,474.18 L234.65,473.61 L252.61,471.4 L277.64,468.23 L299.83,464.3 L356.28,447.69 L387.83,439.05 L416.75,434.35 L436.58,432.72 L452.05,427.15 L496.78,405.94 L516.4,397.88 L545.04,391.45 L568.96,388.09 L591.78,384.25 L604.61,379.74 L620.21,369.95 L633.73,355.84 L641.36,343.94 L644.76,331.46 L644.2,318.41 L641.99,306.12 L637.13,292.59 L630.68,279.73 L620.56,271.86 L610.85,262.74 L606.13,258.62 L601.77,254.2 L597.19,244.12 Z" stroke="#FFFFFF" stroke-width="7" stroke-linejoin="round" stroke-linecap="round" fill="none" />
</svg>
