<svg viewBox="0 0 1000 1000" xmlns="http://www.w3.org/2000/svg" fill="none">
  <!-- Circuit geometry: bacinger/f1-circuits (MIT) -->
  <path d="M272.51,613.52 L286.63,447.42 L293.05,377.79 L293.74,374.94 L295.73,373.31 L298.2,372.92 L301.24,373.31 L304.1,373.52 L306.75,373.31 L308.56,371.89 L309.97,369.86 L310.33,368.05 L310.33,366.03 L300.34,328.05 L298.92,317.71 L298.38,308.37 L299.1,298.2 L302.84,248.68 L304.28,240.58 L306.06,233.05 L308.74,224.95 L312.29,216.21 L316.39,207.68 L322.44,198.12 L328.68,190.24 L337.08,181.29 L346.17,173.36 L356.32,166.08 L367.2,159.8 L379.48,153.68 L391.8,149.42 L405.36,145.59 L420.69,142.92 L436.38,141.49 L497.52,136.24 L572.39,131.76 L576.84,131.37 L579.16,130.13 L581.12,128.1 L583.59,119.36 L584.68,116.95 L586.45,115.31 L589.49,114.32 L599.64,112.47 L610.7,110.06 L626.39,104.98 L696.44,81.42 L702.5,80 L708.22,80 L713.73,81.03 L717.64,82.63 L721.41,84.87 L724.96,87.32 L729.42,92.19 L731.92,96.02 L733.7,100.71 L734.6,105.97 L737.61,139.26 L743.33,196.1 L743.15,201.18 L742.25,204.45 L740.83,207.3 L738.52,209.32 L734.24,212.16 L688.43,236.92 L651.17,257.81 L627.98,270.6 L616.75,277.1 L604.1,286.02 L595.01,292.95 L587.18,299.84 L546.52,334.76 L517.66,360.95 L456.68,414.52 L419.96,446.82 L414.96,451.9 L413.01,455.13 L412.64,458.36 L412.64,462.23 L413.91,470.76 L414.27,475.41 L414.27,482.13 L413.73,485.79 L412.28,490.44 L410.14,495.91 L406.59,501.42 L401.77,507.11 L396.26,511.76 L391.8,515.2 L389.48,517.87 L387.71,521.49 L386.08,528.21 L382.35,558.87 L378.43,591.55 L348.13,884.64 L346.87,895.2 L345.63,900.1 L343.13,905.14 L339.73,909.23 L335.81,912.89 L330.3,916.51 L324.25,918.75 L317.29,920 L311.39,919.57 L305.88,918.36 L299.46,915.91 L293.23,913.07 L288.59,909.84 L283.05,905.57 L276.81,898.86 L272.54,892.78 L268.8,886.28 L265.58,878.57 L262.57,870.05 L260.25,861.3 L259.17,853.81 L257.93,842.44 L257.75,831.07 L257.57,820.31 L257.03,798.99 L256.67,780.3 L257.03,760.02 L259.35,733.45 L268.08,649.39 L272.51,613.52 Z" stroke="#FFFFFF" stroke-width="7" stroke-linejoin="round" stroke-linecap="round" fill="none" />
</svg>
