<svg viewBox="0 0 1000 1000" xmlns="http://www.w3.org/2000/svg" fill="none">
  <!-- Circuit geometry: bacinger/f1-circuits (MIT) -->
  <path d="M639.86,709.86 L582,725.23 L438.67,764.25 L428.79,764.99 L422.2,759.02 L411.11,737.54 L375.99,690.09 L337.89,635.93 L307.95,588.11 L280.64,540.96 L235.95,443.52 L223.64,417.56 L204.74,386.98 L175.66,351.39 L127.37,302.9 L82.69,258.21 L80,252.24 L80.3,245.9 L85.42,242.77 L97.13,240.68 L133.71,236.43 L170.29,235.01 L208.08,235.38 L244.06,238.89 L285.76,245.6 L413.18,270.22 L471.35,277.9 L597,283.2 L607.24,286.71 L613.52,293.72 L615.9,301.48 L615.29,309.61 L612,317.3 L599.43,335.28 L589.5,347.21 L571.21,363.4 L551.15,374.29 L526.83,382.35 L500.43,386.6 L472.87,384.81 L365.81,367.58 L351.42,369.37 L339.72,373.55 L329.53,380.63 L320.51,390.11 L314.84,401.37 L311.8,413.68 L311.24,424.95 L313.02,437.26 L316.31,446.36 L368.19,537.08 L376.91,546.63 L390.69,555.36 L406.6,558.94 L421.9,557.52 L438.06,550.81 L447.99,542.75 L458.17,530.07 L467.75,517.76 L477.99,507.24 L490.25,498.81 L504.64,490.3 L524.75,482.92 L545.73,478.36 L711.86,474.86 L839.64,471.73 L853.12,472.02 L866.29,476.65 L877.14,484.71 L885.8,495.6 L892.39,510 L918.48,597.95 L920,606.01 L918.48,611.98 L915.49,616.61 L905.31,624.66 L891.83,632.72 L874.4,641.52 L854.64,649.95 L831.23,657.71 L639.86,709.86 Z" stroke="#FFFFFF" stroke-width="7" stroke-linejoin="round" stroke-linecap="round" fill="none" />
</svg>
