<svg viewBox="0 0 1000 1000" xmlns="http://www.w3.org/2000/svg" fill="none">
  <!-- Circuit geometry: bacinger/f1-circuits (MIT) -->
  <path d="M302.81,791.31 L239.57,807.17 L228.04,808.23 L214.17,808.23 L201.8,804.27 L193.33,800.68 L182.13,793.52 L174.05,786.27 L167.86,778.04 L163.24,768.35 L159.4,758.59 L159,748.22 L159.4,736.32 L160.96,727.32 L163.63,718.71 L168.64,711.16 L175.61,704.68 L191.05,697.89 L205.31,697.89 L216.45,702.16 L221.07,707.19 L224.2,712.61 L224.53,720.16 L222.25,730.91 L217.62,747.08 L216.45,753.94 L219.19,760.8 L225.7,767.97 L236.9,772.24 L249.21,769.72 L255.79,765.45 L260.02,758.29 L263.87,751.04 L267.71,741.36 L270.05,730.6 L270.84,718.33 L268.88,707.96 L262.69,696.44 L258.46,689.27 L245.76,673.79 L211.83,637.49 L185.64,603.33 L164.02,579.99 L137.06,549.42 L128.59,535 L124.68,524.63 L96.93,443.04 L88.08,418.56 L80.39,394.46 L80,388.36 L83.45,383.33 L90.42,380.43 L102.34,382.64 L114.72,390.87 L125.07,399.49 L135.49,410.63 L150.15,425.72 L162.85,444.41 L185.25,483.6 L215.28,536.45 L224.92,551.17 L234.56,562.68 L245.37,573.13 L258.07,579.99 L271.62,585.03 L285.49,587.85 L301.64,587.85 L315.91,585.03 L329.78,579.99 L343.65,571.3 L356.81,560.55 L367.16,548.35 L378.37,524.25 L395.69,487.57 L403.05,476.44 L410.74,468.89 L420.38,463.17 L434.64,456.99 L448.12,455.92 L459.72,456.99 L470.14,460.96 L479.39,467.06 L485.9,472.47 L491.7,478.95 L520.22,534.32 L527.19,541.87 L535.66,544.38 L543.74,542.93 L551.1,540.04 L579.62,502.29 L583.47,494.74 L583.47,487.95 L581.12,481.09 L511.37,362.51 L467.79,292.04 L419.99,212.97 L413.47,210.83 L406.89,212.58 L400.71,218 L393.41,226.23 L386.44,234.85 L379.93,239.2 L371.79,241.71 L363.32,240.27 L354.85,232.72 L344.82,221.58 L339.81,212.58 L336.75,204.35 L335.18,192.07 L335.97,180.94 L337.92,170.18 L341.37,160.12 L350.62,147.92 L359.48,141.05 L371.79,135.64 L384.95,132.82 L395.37,131.75 L408.07,132.44 L424.61,136.4 L435.42,141.05 L446.62,147.15 L462,161.57 L475.54,180.63 L622.02,404.91 L713.4,542.93 L760.82,614.84 L802.44,679.89 L857.54,762.17 L916.55,848.5 L920,856.05 L919.61,863.22 L914.59,868.25 L906.52,867.56 L889.91,859.63 L880.27,852.77 L869.52,844.91 L756.59,690.64 L751.57,687.82 L742.32,687.06 L600.79,720.54 L302.81,791.31 Z" stroke="#FFFFFF" stroke-width="7" stroke-linejoin="round" stroke-linecap="round" fill="none" />
</svg>
