<svg viewBox="0 0 1000 1000" xmlns="http://www.w3.org/2000/svg" fill="none">
  <!-- Circuit geometry: bacinger/f1-circuits (MIT) -->
  <path d="M547.74,87.95 L639.1,80 L655.34,80.98 L667.82,85.12 L675.96,90.51 L685.67,101.79 L691.79,114.64 L696.75,130.82 L703.71,158.26 L710.84,185.22 L714.99,215.02 L716.77,233.75 L719.14,279.18 L720.15,317.95 L721.72,333.09 L727.48,347.26 L738.36,367.03 L742.95,378.3 L742.75,386.8 L740.74,396.76 L725.3,437.61 L724.3,454.06 L726.68,465.82 L732.23,475.85 L747.5,497.14 L751.05,506.94 L751.45,518.49 L748.87,529 L739.57,540.55 L727.68,549.04 L711.41,558.52 L698.76,565.98 L689.82,574.7 L679.54,591.91 L659.32,629.87 L548.14,834.49 L511.68,891.24 L501.37,905.13 L493.07,912.54 L483.36,917.44 L473.25,920 L463.94,919.24 L453.63,916.9 L444.93,913.08 L437.2,906.93 L430.63,897.13 L428.66,893.31 L418.75,871.74 L407.67,852.46 L395.78,836.56 L387.65,826.81 L378.54,816.79 L362.47,800.34 L326.62,757.48 L323.04,755.19 L318.08,754.65 L313.16,756.99 L298.1,770.6 L292.94,772.4 L287.79,771.86 L283.43,770.06 L277.27,764.18 L270.75,757.48 L262.61,746.7 L256.68,735.15 L252.5,723.33 L248.95,709.99 L248.55,704.59 L249.55,699.2 L252.5,694.08 L259.63,682.75 L369.04,540.06 L393.61,508.47 L398.73,502.53 L407.67,496.65 L418.35,494.09 L427.09,493.82 L439.17,494.85 L472.85,499.97 L483.96,501.28 L495.45,501.77 L508.54,499.97 L520.42,496.92 L531.1,490.99 L600.87,435.54 L605.42,432.49 L610.98,429.66 L616.7,429.11 L621.06,430.69 L625.04,434.29 L627.42,438.37 L639.3,479.98 L642.88,485.87 L647.8,489.46 L653.56,489.73 L659.92,486.9 L663.87,481.78 L666.45,476.39 L671.41,462.77 L675.36,451.23 L678.34,439.9 L679.91,428.9 L680.91,417.3 L680.11,405.26 L677.73,399.87 L671.61,392.95 L445.5,186.53 L439.37,182.66 L430.84,178.31 L420.36,176.78 L409.44,178.04 L398.36,183.43 L394.38,188.33 L391.6,195.52 L387.05,232.99 L384.47,240.67 L378.94,246.88 L370.61,250.96 L361.5,252.27 L351.39,249.66 L344.26,244.81 L339.91,239.14 L336.53,232.5 L335.93,225.31 L337.33,217.58 L342.86,205 L371.98,147.26 L381.32,136.21 L390.43,126.95 L403.52,115.67 L414.2,108.21 L427.69,102.55 L439.37,98.74 L464.15,95.63 L547.74,87.95 Z" stroke="#FFFFFF" stroke-width="7" stroke-linejoin="round" stroke-linecap="round" fill="none" />
</svg>
