<svg viewBox="0 0 1000 1000" xmlns="http://www.w3.org/2000/svg" fill="none">
  <!-- Circuit geometry: bacinger/f1-circuits (MIT) -->
  <path d="M397.23,169.08 L351.02,88.34 L350.53,84.71 L352.58,81.5 L356.85,80 L361.61,81.31 L376.82,88.97 L413.74,106.69 L431.49,117.61 L449.96,131.29 L466.52,145.16 L479.65,159.47 L550.22,243.61 L555.18,248.33 L563.7,253.63 L578.9,263.46 L585.57,270.07 L591.2,279.05 L594.81,287.2 L597.2,296.35 L599.25,313.26 L600.43,319.24 L602.48,324.76 L606.41,332.01 L641.27,387.79 L663.47,423.22 L669.61,436.45 L673.54,446.29 L678.16,462.1 L706.01,559.29 L748.72,706.86 L758.62,742.34 L759.14,748.09 L758.1,754.48 L754.69,759.6 L749.73,763.91 L743.41,767.31 L739.66,770.93 L737.09,775.19 L735.04,781.62 L735.39,788.01 L743.93,826.25 L743.76,832.87 L742.4,838.85 L737.78,845.47 L732.3,849.95 L634.95,917.24 L628.8,919.82 L622.66,920 L616.16,918.1 L610.85,914.25 L607.1,908.72 L605.57,903.14 L605.23,897.16 L607.1,891.59 L610.51,885.84 L615.47,881.8 L658.01,855.52 L662.63,850.81 L665.17,846.1 L666.21,840.57 L665.69,833.73 L648.08,782.03 L642.63,760.92 L630.16,695.76 L624.01,658.38 L622.66,651.99 L619.57,645.15 L615.47,639.58 L609.32,633.6 L602.48,629.11 L594.98,626.12 L587.1,624.85 L561.65,623.13 L551.92,624.22 L543.03,626.75 L534,630.61 L526.64,635.54 L518.1,643.43 L512.64,651.31 L506.67,662.64 L482.57,722.9 L461.04,776.5 L456.42,784.84 L450.97,790.59 L443.46,794.85 L435.93,796.98 L428.95,797.21 L421.93,795.71 L415.96,792.95 L406.03,786.52 L399.54,783.75 L391.69,782.48 L383.84,783.35 L376.65,785.66 L370.5,789.96 L366.58,794.85 L361.79,801.47 L322.34,863.41 L318.41,867.03 L313.62,869.62 L307.82,870.88 L301.32,870.48 L295.7,867.89 L269.03,848.46 L253.33,836.95 L249.4,831.83 L245.31,825.62 L242.91,819.64 L241.21,812.57 L240.86,805.32 L242.05,796.58 L244.79,789.1 L248.37,779.49 L253.68,764.95 L262.88,748.5 L272.98,734.18 L288.34,716.92 L313.97,691.91 L329,680.17 L341.82,672.7 L407.76,638.31 L417.31,632.33 L426.38,625.26 L434.75,617.38 L441.9,608.81 L448.57,599.84 L457.46,583.44 L464.65,567.63 L481.04,531.11 L483.92,523.18 L485.66,514.66 L485.97,503.96 L484.27,494.36 L474.55,469.35 L463.95,441.8 L451.14,407.41 L447.88,394.63 L444.82,379.45 L442.94,365.36 L441.73,353.4 L437.98,298.08 L438.67,294.45 L440.89,291.87 L444.3,291.01 L450.1,291.87 L456.1,291.87 L460.2,291.01 L462.91,288.02 L463.61,284.62 L461.9,280.13 L440.89,245.74 L397.23,169.08 Z" stroke="#FFFFFF" stroke-width="7" stroke-linejoin="round" stroke-linecap="round" fill="none" />
</svg>
