<svg viewBox="0 0 1000 1000" xmlns="http://www.w3.org/2000/svg" fill="none">
  <!-- Circuit geometry: bacinger/f1-circuits (MIT) -->
  <path d="M797.33,515.29 L849.15,577.67 L909.76,651.95 L915.31,659.81 L918.4,668 L920,675.38 L919.88,682.62 L918.98,688.19 L911.91,710.04 L908.55,715.76 L903.66,720.09 L899.56,722.43 L892.17,724.24 L885.45,724 L878.07,721.52 L871.19,716.09 L864.19,705.52 L828.43,650.62 L821.67,644.86 L815.85,643 L807.06,641.47 L788.57,641.33 L779.27,638.66 L772.7,634.05 L767.74,628 L765.4,622.09 L757.07,590.48 L753.59,582.38 L748.05,575.43 L741.6,570.71 L733.47,566.9 L725.14,565.33 L703.65,565 L693.72,563.09 L686.92,559.86 L679.89,554.43 L674.73,546.86 L671.56,539.14 L670.12,531.86 L670.2,524.9 L671.53,519 L682.08,490.14 L683.68,484.29 L683.95,476.57 L682.82,471.48 L680.04,464.1 L675.9,457.81 L667.97,452.19 L658.32,446.95 L646.87,441.19 L636.78,437.14 L629.28,435.05 L618.73,433.29 L606.77,433.1 L597.35,433.48 L589.49,435.57 L583.12,438.29 L573.2,442.52 L562.76,448.38 L550.77,458.19 L541.39,468.14 L501.95,515.95 L499.92,518.71 L493.63,520.19 L436.02,525.38 L432.31,524.9 L428.37,522.24 L426.76,517.71 L426.06,513.9 L417.31,477.91 L405.62,410.29 L403.39,397.86 L402.85,391.57 L403.47,385.1 L404.72,378.38 L407.38,371.43 L410.39,364.53 L419.69,343.19 L420.67,339.91 L419.96,336.91 L418.2,334.15 L415.19,332.1 L411.72,331 L408.36,331.24 L404.53,333.81 L401.36,338.38 L387.8,361.81 L376.78,379.48 L369.59,389.95 L363.65,396.86 L358.53,401.24 L349.73,408.19 L340.47,413.14 L330.78,416.05 L313.9,418.52 L297.91,419.19 L285.88,418.29 L271.53,415.14 L255.82,410.72 L238.24,404.14 L227.14,399 L217.41,393.14 L208.42,386.43 L198.92,377.91 L189.11,367.05 L182.63,357.57 L176.8,347.19 L162.42,308.91 L154.72,292.15 L150.81,285.43 L145.5,280.48 L138.54,277.34 L130.22,275.76 L120.25,276 L111.03,277.34 L102,279.34 L93.21,282.96 L86.02,288.43 L81.68,295.38 L80,302.19 L80.51,310.76 L82.46,317.15 L85.31,323.57 L90.2,328.95 L99.85,338 L111.93,348.05 L123.73,358.38 L138.7,369.72 L155.82,381.38 L173.32,392.33 L192.9,401.67 L210.41,410.62 L228.39,417.48 L257.58,427.57 L289.71,440.1 L328.59,453.71 L367.16,465.91 L393.86,475.14 L428.37,488.33 L436.26,490.33 L444.11,490.57 L452.44,489 L460.53,486.76 L475.11,481.14 L488.51,474.43 L499.77,467.48 L511.41,458.43 L533.18,438.05 L563,410.24 L571.28,403.38 L577.18,399.24 L582.58,395.67 L586.41,393.38 L588.48,393.19 L591.21,394.33 L597.94,400.33 L602.78,404.38 L606.73,405.53 L610.44,404.81 L614.82,401.91 L622.01,395.38 L630.1,389.57 L639.13,385.76 L650.15,384.81 L660.43,385.38 L671.29,387.62 L682.16,391.86 L691.38,396.29 L702.95,404.14 L713.34,413.81 L724.01,425.72 L797.33,515.29 Z" stroke="#FFFFFF" stroke-width="7" stroke-linejoin="round" stroke-linecap="round" fill="none" />
</svg>
