<svg viewBox="0 0 1000 1000" xmlns="http://www.w3.org/2000/svg" fill="none">
  <!-- Circuit geometry: bacinger/f1-circuits (MIT) -->
  <path d="M495.11,550.6 L611.94,534.76 L618.11,532.7 L622.75,527.87 L625.96,521.2 L626.55,514.59 L624.83,507.65 L606.12,428.15 L602.91,419.47 L598.52,413.07 L591.21,406.94 L585.09,403.91 L551.97,393.6 L540.97,388.02 L532.77,382.43 L525.37,375.44 L519.79,368.88 L515.65,363.4 L510.61,351.36 L508.79,342.19 L508.64,332.22 L510.66,320.4 L514.41,307.98 L522.66,276.36 L525.57,252.93 L525.86,236.29 L524.38,221.86 L515.25,147.68 L509.18,100.93 L508,95.51 L506.86,91.12 L503.36,86.62 L497.38,81.68 L493.78,80.43 L489.63,80 L485.69,80.65 L481.44,82.33 L478.28,85.53 L476.36,88.51 L473.94,93.5 L466.68,115.09 L459.77,146.32 L401.33,320.56 L378.53,388.02 L365.89,425.65 L356.42,454.83 L346.55,491.05 L325.67,557.75 L305.78,617.84 L303.46,623.7 L302.86,628.09 L303.46,630.64 L305.68,633.19 L310.71,633.35 L329.32,631.12 L333.42,631.12 L336.72,635.08 L347.29,675.21 L349.46,682.75 L356.12,699.4 L362.19,711.33 L375.27,730.36 L390.18,747.72 L408.93,763.82 L488.45,826.56 L506.56,841.26 L520.83,851.46 L539.88,863.77 L556.22,873.2 L582.63,885.94 L606.76,896.79 L642.64,913.76 L657.99,919.95 L666.63,920 L675.76,918.16 L684.1,913.33 L688.55,909.05 L691.51,904.82 L694.47,898.58 L696.15,892.51 L697.14,886.87 L696.35,877.54 L694.47,870.76 L691.8,864.2 L687.91,858.34 L682.38,853.03 L675.52,848.42 L668.26,845.22 L657.7,843.7 L573.99,836.98 L563.67,835.62 L559.23,834.64 L554.54,832.96 L509.58,804.87 L505.03,801.46 L501.97,797.55 L498.72,789.2 L488.25,740.23 L488.94,736.38 L491.36,733.78 L495.01,732.75 L532.33,727.16 L536.72,725.32 L539.54,723.86 L542.5,720.82 L545.46,715.23 L546.15,708.35 L546.25,674.45 L543.53,668.65 L540.18,665.18 L535.09,663.23 L528.13,661.71 L522.06,660.9 L513.97,660.62 L505.97,661.22 L428.09,673.21 L421.37,673.69 L412.83,673.37 L404.49,671.9 L398.77,670.01 L394.97,666.54 L391.02,662.31 L369.65,623.48 L358.59,605.64 L356.27,600.38 L354.64,593.38 L354.1,587.42 L354,580.26 L355.18,575.38 L358.05,571.85 L361.6,570.06 L369.74,568.6 L495.11,550.6 Z" stroke="#FFFFFF" stroke-width="7" stroke-linejoin="round" stroke-linecap="round" fill="none" />
</svg>
