<svg viewBox="0 0 1000 1000" xmlns="http://www.w3.org/2000/svg" fill="none">
  <!-- Circuit geometry: bacinger/f1-circuits (MIT) -->
  <path d="M182.6,469.15 L276.76,241.53 L312.54,158.01 L320.64,148.78 L331.61,143.59 L343.57,142.05 L354.66,144.36 L365.1,151.47 L372.38,160.41 L376.25,171.56 L376.54,183.96 L366.16,208.08 L336.3,280.75 L326.68,314.59 L322.81,349.86 L324.86,382.93 L321.75,396.38 L314.42,405.42 L299.75,417.34 L283.97,423.58 L240.39,440.6 L229.18,449.06 L226.13,461.55 L225.72,472.8 L230.24,484.24 L238.68,492.41 L249.24,496.73 L265.43,496.35 L345.28,470.88 L382.35,463.96 L414.32,462.9 L442.6,465.01 L469.35,469.53 L488.41,475.39 L519.62,482.03 L548.43,484.52 L568.84,480.3 L593.42,473.86 L622.99,458.96 L657.72,436.27 L681.24,425.12 L702.18,419.07 L729.81,415.99 L751.58,416.47 L842.33,422.05 L863.27,426.85 L882.69,436.56 L896.48,448.38 L905.33,460.98 L913.96,475.39 L918.53,492.02 L920,509.61 L918.36,526.82 L913.31,544.31 L902.4,563.34 L860.69,620.25 L845.32,645.53 L810.48,720.79 L793.76,726.65 L773.11,729.05 L753.34,728.09 L730.05,724.15 L705.88,715.88 L680.01,703.49 L654.37,685.22 L638.53,667.63 L635.66,656.87 L638.18,645.53 L648.04,631.3 L662.12,622.26 L682.82,614.67 L718.2,609.1 L752.28,600.54 L783.37,588.62 L800.56,576.51 L807.07,562 L807.95,546.14 L802.38,530.37 L788.01,516.05 L775.1,511.53 L708.05,503.36 L640.53,503.56 L568.78,512.21 L508.12,527.49 L470.58,539.31 L429.16,554.69 L389.57,571.51 L357.3,590.64 L345.45,595.74 L337,594.1 L329.08,583.14 L320.64,567.19 L309.02,559.98 L294.12,559.4 L279.57,566.23 L271.83,576.7 L268.25,587.95 L271.83,610.83 L304.33,800.57 L305.03,813.25 L301.45,826.23 L295.71,837.19 L290.13,844.2 L276.35,853.53 L261.62,856.89 L199.2,857.95 L186.47,857.28 L167.94,854.39 L148.75,848.15 L132.97,840.94 L111.97,824.4 L98.3,806.14 L88.98,790.47 L82.17,769.33 L80,750.78 L81.94,720.5 L87.68,698.97 L177.73,480.49 L182.6,469.15 Z" stroke="#FFFFFF" stroke-width="7" stroke-linejoin="round" stroke-linecap="round" fill="none" />
</svg>
