<svg viewBox="0 0 1000 1000" xmlns="http://www.w3.org/2000/svg" fill="none">
  <!-- Circuit geometry © OpenStreetMap contributors (ODbL) -->
  <path d="M506.86,393.41 L507.66,369.62 L508.59,358.38 L510.4,353.34 L513.38,350.2 L517.75,348.39 L533.45,346.03 L538.97,342.81 L544.06,334.79 L556.21,311.26 L564.6,299.86 L582.8,282.76 L761.08,138.96 L796.31,110.62 L815.11,95.58 L819.59,92.55 L823.4,90.66 L826.72,89.85 L830,89.8 L833.48,90.7 L838.8,93.63 L856.96,107.41 L889.5,133.98 L894.08,137.57 L901.58,143.44 L904.86,146.9 L907.57,151.31 L908.84,155.06 L909.38,159.27 L910.1,166.45 L910.87,171.26 L915.84,211.86 L917.61,229.55 L920,248.43 L919.28,253.44 L918.11,257.13 L916.95,260.06 L914.65,264.21 L912.34,267.64 L909.51,270.51 L906.33,273.18 L903.31,275.33 L899.79,277.25 L896.85,278.43 L893.72,279.3 L889.43,280.04 L884.39,280.08 L880.42,279.6 L876.28,278.49 L867.23,275.03 L860.15,271.99 L855.47,269.84 L852.44,267.94 L849.7,265.86 L846.49,262.53 L844.43,259.29 L842.62,256.23 L841.32,253.49 L839.68,249.32 L838.73,246.05 L838.33,242.05 L838.09,237.91 L839.08,232.7 L840.4,228.64 L844.5,220.75 L850.39,211.6 L860.79,194.14 L861.95,189.99 L862.51,186.37 L862.36,183.1 L861.46,179.09 L860.6,176.11 L859.28,173.23 L858.16,171.2 L856.22,168.71 L854.17,167 L851.55,165.8 L848.64,165.1 L845.14,165.32 L841.95,166.28 L839.54,167.83 L836.97,170.1 L833.72,173.89 L830.73,177.97 L819.66,196.84 L807.92,220.79 L794.75,263.03 L783.76,283.63 L748.28,339.01 L704.34,406.5 L690.84,424.86 L649.48,478.76 L625.04,511.34 L613.52,526.52 L582.74,568.12 L576.66,572.1 L569.31,573.54 L548.51,575.04 L534.73,578.66 L519.5,588.29 L508.5,598.06 L499.76,610.9 L493.78,627.55 L491.74,659.43 L489.31,705.67 L487.98,735.97 L486,748.04 L484.34,753.24 L481.51,758.12 L477.19,763.38 L473.1,766.84 L467.45,770.92 L461.49,773.91 L456.21,775.49 L450.92,776.21 L440.21,776.15 L422.12,774.62 L392.29,772.31 L375.95,772.72 L327.66,778.82 L304.08,779.68 L241.95,779.13 L226.28,779 L215.46,779.69 L204.03,783.32 L196.07,790.66 L191.71,799.75 L189.08,813.32 L174.57,888 L171.97,893.93 L168.71,899.21 L163.95,903.9 L159.03,907.08 L154.76,909.02 L150.11,909.87 L144.15,910.2 L138.43,909.64 L127.55,905.02 L109.03,893.06 L98.16,884.63 L90.82,875.8 L85.01,865.59 L81.42,853.13 L80,840.41 L81.78,824.43 L86.45,812.77 L98.74,792.87 L150.32,712.09 L155.28,704.59 L159.87,698.15 L164.92,693 L171.2,688.53 L179.16,684.92 L329.45,615.33 L335.64,612.81 L346.41,610.91 L393.3,605.06 L403.7,602.08 L415.41,596.46 L468.9,566.61 L478.19,558.65 L484.42,551.16 L496.12,530.44 L500.71,514.17 L502.74,497.46 L503.3,479.38 L504.09,441.55 L505.29,421.61 L506.86,393.41 Z" stroke="#FFFFFF" stroke-width="7" stroke-linejoin="round" stroke-linecap="round" fill="none" />
</svg>
