<svg viewBox="0 0 1000 1000" xmlns="http://www.w3.org/2000/svg" fill="none">
  <!-- Circuit geometry © OpenStreetMap contributors (ODbL) -->
  <path d="M536.52,337.68 L564.4,330.89 L564.4,330.89 L639.43,313.6 L644.78,312.36 L660.52,308.74 L666.22,307.8 L670.61,307.84 L674.29,308.16 L678.35,309.17 L682.14,310.89 L686.91,314.7 L689.41,317.55 L692.18,322.02 L693.82,325.88 L694.93,328.92 L695.37,332.45 L695.23,336.16 L694.99,341.65 L689.18,379.35 L688.94,381.16 L686.84,385.85 L685.95,387.82 L684.17,389.95 L681.2,392.74 L678.65,394.63 L675.78,396.48 L673.49,397.27 L670.06,398.11 L664.45,398.55 L636.67,397.71 L629.26,397.49 L624.92,397.95 L621.68,398.73 L618.18,400.29 L614.23,402.6 L611.45,405.08 L608.67,408.21 L605.73,412.98 L604.18,417.51 L603.29,422.55 L603.34,428.54 L604.54,433.63 L606.6,438.37 L609.12,442.68 L611.89,445.25 L614.15,447.15 L619.02,450.21 L693.37,489.83 L695.01,490.7 L698.93,492.12 L700.9,492.39 L703.59,492.68 L707.26,492.35 L709.83,491.84 L712.95,490.63 L716.28,488.45 L718.99,486.39 L720.5,484.75 L722.92,481.67 L725.2,477.32 L727.55,469.04 L730.9,456.16 L732.95,451.23 L734.5,448.19 L737.39,444.58 L741.16,441.32 L744.44,439.18 L749.26,437.12 L753.6,436.3 L757.72,436.11 L761.02,436.25 L765.93,437.54 L770.04,439.09 L772.69,440.81 L776.13,443.26 L778.54,446.04 L800.41,477.32 L907.64,630.71 L909.25,633.01 L913.06,639.04 L916.28,644.4 L917.92,648.38 L918.99,650.97 L919.83,654.96 L920,659.17 L919.98,662.28 L919.58,666.55 L918.59,670.88 L917.32,673.46 L915.49,677.05 L913.15,680.01 L910.6,682.8 L906.79,685.97 L901.91,688.62 L895.6,691.17 L889.73,692.2 L884.01,692.06 L880.22,691.14 L875.68,689.47 L868.52,685.39 L797.9,645.13 L775.81,632.27 L771.74,630.84 L767.92,630.02 L764.55,629.98 L760.78,630.25 L757.59,631.37 L753.42,633.09 L751.02,634.7 L748.19,637.05 L745.46,640.27 L743.51,644.53 L742.45,647.45 L738.63,660.88 L735.61,670.93 L733.56,674.29 L730.46,677.25 L727.29,679.31 L722.68,681.06 L718.21,681.93 L714.87,682.26 L711.05,682.07 L707.78,681.27 L664.07,665.66 L498.67,606.56 L479.34,599.66 L476.85,599 L473.48,598.43 L468.99,598.44 L465.08,598.84 L461.1,599.69 L458.52,600.99 L455.88,602.69 L453.58,604.99 L451.73,607.2 L449.98,610.36 L448.71,613.64 L446.48,620.36 L440.09,644.28 L437.78,653.3 L436.32,657.17 L434.48,660.67 L432.5,662.88 L429.32,666.13 L425.58,668.63 L422.59,670.36 L418.89,671.91 L412.71,673.98 L407.75,675.01 L404.22,675.68 L397.63,676.13 L390.9,675.92 L385.86,675.1 L380.28,673.68 L370,669.71 L304.92,641.49 L127.45,564.57 L109.94,556.66 L101.97,553.41 L97.46,550.49 L92.88,545.8 L85.92,535.93 L83.28,530.47 L81.7,526 L80.76,521.51 L80.17,516.79 L80,510.77 L80.58,504.7 L81.61,499.4 L83.05,494.19 L84.8,490.73 L87.7,485.64 L91,481.2 L94.01,478.1 L97.98,474.58 L102.82,471.36 L107.4,469.16 L114.05,466.96 L120.08,465.97 L124.12,465.56 L131.01,465.91 L136.34,467.05 L142.64,468.79 L150.36,472.03 L156.56,474.82 L166.13,478.64 L173.23,480.8 L182.95,482.82 L192.3,484.16 L205.76,484.8 L219.5,484.21 L420.59,474.28 L438.73,473.53 L442.88,472.75 L446.3,471.58 L450.62,469.42 L453.44,467.05 L455.1,465.25 L457.52,462.55 L459.96,458.55 L461.89,453.47 L462.38,448.94 L462.56,444.51 L462.34,441.17 L461.4,437.25 L459.75,433.01 L448.81,410.56 L445.03,401.74 L443.65,398.52 L440.84,391.91 L439.42,388.06 L438.93,382.66 L439.06,379.96 L439.62,375.74 L441.13,370.76 L442.97,366.87 L445.8,362.98 L448.63,360.19 L452.45,357.64 L458.3,355.39 L463.75,354.17 L491.22,347.94 L496.39,346.77 L536.52,337.68 Z" stroke="#FFFFFF" stroke-width="7" stroke-linejoin="round" stroke-linecap="round" fill="none" />
</svg>
