<svg viewBox="0 0 1000 1000" xmlns="http://www.w3.org/2000/svg" fill="none">
  <!-- Circuit geometry © OpenStreetMap contributors (ODbL) -->
  <path d="M658.91,918.33 L328.71,760.04 L325.28,756.78 L323.16,752.53 L322.6,747.83 L322.93,742.81 L363.89,569.04 L407.02,386.08 L413.07,360.42 L417.74,337.12 L420.64,315.62 L421.31,309.96 L445.67,104.82 L446.76,100.59 L448.44,96.56 L450.68,92.82 L453.45,89.44 L456.67,86.49 L460.27,84.03 L464.19,82.12 L468.36,80.8 L472.66,80.09 L477.02,80 L482.24,80.74 L487.24,82.36 L491.89,84.83 L496.04,88.07 L499.56,91.98 L502.36,96.44 L504.34,101.31 L505.44,106.45 L505.64,111.71 L504.92,116.91 L501.1,143.26 L492.69,201.41 L473.56,333.68 L436.4,590.5 L430.83,627.01 L428.82,646.53 L429.67,660.87 L431.41,669.85 L435.9,680.97 L443.06,691.2 L544.78,796.87 L554.47,806.93 L559.67,810.32 L565.66,811.97 L571.87,811.75 L577.72,809.67 L583.88,806.43 L588.49,802.69 L591.99,796.98 L606.81,762.76 L609.11,751.26 L609.17,745.41 L609.22,739.75 L607.02,725.78 L602.15,713.95 L593.85,702.52 L581.94,693.35 L521.26,663.43 L512.62,654.73 L510.15,650.15 L507.81,645.81 L499.02,624.16 L498.22,616.57 L498.41,609.31 L517.49,458.04 L522.46,418.6 L523.88,414.14 L526.04,409.98 L528.86,406.25 L532.3,403.06 L536.22,400.5 L540.53,398.66 L544.99,397.57 L627.52,383.39 L638.43,382.49 L645.05,383.88 L649.14,384.75 L657.07,388.77 L663.86,394.52 L668.42,400.5 L671.7,407.27 L673.96,417.79 L673.18,428.52 L670.17,437.16 L665.19,444.82 L639.34,468.79 L631.77,477.72 L629.09,482.54 L626.7,486.83 L623.23,496.1 L621.06,507.53 L620.67,520.02 L622.35,535.73 L626.35,548.35 L630.46,557.38 L645.12,581.02 L651.85,591.87 L656.44,601.04 L660.07,614.7 L661.32,627.59 L664.6,721.47 L666.97,750.08 L667.73,759.4 L670.75,795.85 L673.77,847.02 L676.96,901.17 L677.4,908.66 L676.42,912.76 L674.09,916.27 L670.71,918.78 L666.68,920 L662.47,919.77 L658.91,918.33 Z" stroke="#FFFFFF" stroke-width="7" stroke-linejoin="round" stroke-linecap="round" fill="none" />
</svg>
