<svg viewBox="0 0 1000 1000" xmlns="http://www.w3.org/2000/svg" fill="none">
  <!-- Circuit geometry: bacinger/f1-circuits (MIT) -->
  <path d="M248.49,652.4 L324.33,712.86 L345.28,727.53 L361.5,737.18 L367.51,740.05 L369.86,740.76 L372.46,740.3 L374.81,738.87 L376.4,736.47 L377.19,734.27 L376.93,731.61 L360.44,684.19 L353.1,662.26 L351.82,655.52 L351.56,649.74 L351.82,643 L353.1,636.71 L355.45,628.79 L359.12,622.04 L363.05,616.01 L368.53,609.73 L374.54,605.38 L382.67,600.32 L426.87,572.88 L444.95,561.53 L448.84,557.7 L452.24,553.1 L455.12,549.27 L457.5,543.95 L459.31,539.4 L464.04,526.17 L467.18,521.82 L471.12,516.76 L476.33,513.39 L480.53,511.19 L490.96,507.1 L499.09,503.02 L503.78,499.39 L506.7,495.81 L509.3,490.95 L510.32,485.18 L511.91,475.32 L512.71,469.03 L514.25,462.08 L516.38,457.02 L518.98,452.16 L522.39,447.36 L526.06,443.02 L531.54,438.21 L537.81,433.61 L544.62,429.78 L551.91,426.66 L558.23,425.18 L563.45,424.98 L567.65,425.18 L574.45,427.12 L617.86,447.11 L622.06,448.79 L626.48,448.79 L629.88,447.36 L638.54,442.05 L648.71,433.87 L656.04,426.41 L663.38,416.54 L668.86,410.05 L673.86,406.17 L679.34,403.77 L683.54,402.8 L689.55,402.8 L696.35,404.74 L701.57,407.6 L705.77,411.74 L708.11,414.6 L710.45,418.23 L712.57,422.32 L715.71,425.69 L719.38,427.12 L723.01,427.12 L801.24,409.8 L806.23,408.11 L809.37,406.42 L811.71,404.23 L857.5,348.62 L897.77,299.92 L913.19,280.19 L919.51,268.64 L920,265.73 L919.25,263.07 L917.39,261.64 L915.05,259.95 L912.44,259.24 L909.57,259.44 L905.64,260.41 L821.92,287.19 L763.58,303.55 L699.23,319.19 L622.32,334.62 L574.19,342.59 L529.68,349.08 L398.63,363.55 L384,366.2 L382.14,367.38 L381.35,369.78 L381.61,371.72 L383.47,374.38 L392.09,383.99 L421.92,424.98 L435.01,446.19 L435.8,449.3 L435.01,453.85 L433.15,457.02 L429.75,459.42 L426.87,460.14 L421.39,460.85 L397.08,458.91 L394.7,457.74 L392.62,455.79 L390.54,453.39 L388.69,450.02 L383.73,436.53 L381.61,431.21 L378.21,426.41 L362.25,410.05 L359.91,408.11 L357.04,406.88 L354.17,406.42 L338.48,404.99 L335.34,405.2 L333.48,406.42 L331.67,408.57 L330.87,411.48 L331.93,414.86 L362.25,467.14 L374.54,490.24 L375.6,496.52 L375.34,502.76 L374.32,507.82 L372.99,512.88 L369.59,522.28 L364.86,532.66 L361.72,536.75 L356.51,540.58 L350.5,543.49 L325.66,554.79 L320.66,556.01 L315.71,556.27 L306.56,555.55 L297.9,554.33 L289.55,551.67 L280.4,548.04 L272.27,543.24 L266.78,539.15 L263.12,532.91 L234.61,492.9 L212.38,464.94 L209.5,462.08 L206.1,460.6 L201.64,459.68 L197.7,459.88 L192.22,461.36 L185.68,463.51 L180.2,465.66 L88.35,505.93 L83.14,509.51 L81.06,512.88 L80,516.51 L81.06,519.16 L83.14,521.57 L85.75,523.97 L133.88,562.76 L248.49,652.4 Z" stroke="#FFFFFF" stroke-width="7" stroke-linejoin="round" stroke-linecap="round" fill="none" />
</svg>
