<svg viewBox="0 0 1000 1000" xmlns="http://www.w3.org/2000/svg" fill="none">
  <!-- Circuit geometry © OpenStreetMap contributors (ODbL) -->
  <path d="M514.32,514.04 L532.63,521.3 L578.27,536.99 L593.24,539.1 L600.46,536.78 L611.29,528.78 L616.19,518.68 L625.48,486.19 L631.15,479.26 L640.18,474.32 L648.43,473.07 L657.46,475.1 L720.39,498.05 L731.99,505.28 L741.02,513.05 L749.27,523.84 L769.79,570.4 L852.56,758.17 L886.49,835.15 L897.07,861.72 L898.87,869.45 L898.87,879 L897.07,888.79 L893.45,896.01 L886.49,903.23 L875.92,909.69 L832.59,919.23 L820.46,920 L809.11,918.71 L794.67,915.65 L782.29,910.71 L766.81,902.21 L748.24,887.76 L465.57,594.5 L465.57,594.5 L353.26,479.89 L122.02,242.19 L111.96,228.3 L105.26,212.83 L101.13,196.33 L101.13,172.08 L108.35,149.38 L123.57,128.23 L148.07,107.82 L177.73,90.06 L203.26,82.03 L217.96,80 L241.18,81.51 L388.96,123.03 L473.31,148.05 L484.39,152.48 L494.71,158.15 L503.74,165.07 L514.06,175.13 L531.34,195.03 L606.65,287.07 L616.71,300.22 L622.64,314.16 L623.67,328.09 L622.64,340.72 L620.83,351.3 L616.45,360.06 L611.29,368.32 L603.29,376.87 L594.26,384.05 L581.37,389.21 L570.54,391.02 L558.16,390.76 L544.49,388.18 L531.85,381.99 L521.54,373.99 L511.22,361.1 L504.26,347.68 L463.51,254.61 L455.77,245.29 L446.48,235.74 L434.87,229.04 L421.98,223.1 L278.57,182.61 L267.49,181.33 L255.36,184.68 L245.56,191.64 L240.41,199.89 L237.05,210.72 L235.5,222.59 L236.27,234.2 L239.63,247.35 L246.08,258.96 L256.65,270.3 L272.9,280.4 L299.73,290.69 L317.78,298.46 L335.32,311.36 L351.57,326.02 L490.59,494.69 L500.9,504.75 L514.32,514.04 Z" stroke="#FFFFFF" stroke-width="7" stroke-linejoin="round" stroke-linecap="round" fill="none" />
</svg>
