<svg viewBox="0 0 1000 1000" xmlns="http://www.w3.org/2000/svg" fill="none">
  <!-- Circuit geometry © OpenStreetMap contributors (ODbL) -->
  <path d="M436.86,880.62 L507.49,741.24 L510.48,733.53 L512.86,724.56 L514.41,715.96 L514.91,706.8 L514.52,697.43 L513.45,689.64 L511.61,681.95 L508.39,673.69 L504.09,664.49 L499.74,657.41 L495.86,651.99 L400.21,530 L400.21,530 L392.57,522.14 L385.61,516.77 L375.76,511.55 L365.48,507.95 L355.32,505.85 L344.97,505.01 L334.69,505.77 L322.96,508.47 L313.94,511.76 L307.93,514.58 L300.7,518.49 L290.03,526.46 L282.18,533.4 L274.27,542.42 L268.09,551.08 L261.99,561.96 L261.99,561.96 L257.94,571.65 L209.66,708.8 L209.66,708.8 L205.1,719.3 L202.75,723.43 L199.89,727.16 L195.62,730.71 L191.24,733.64 L186.5,735.93 L181.33,737.27 L175.15,737.77 L167.93,737.38 L161.73,735.97 L161.73,735.97 L154.66,732.66 L99.75,692.5 L99.75,692.5 L91.51,685.58 L86.91,679.63 L84.9,675.23 L83.35,669.37 L83.11,660.83 L84.47,654.13 L87.45,647.58 L87.45,647.58 L175.06,469.02 L175.06,469.02 L185.13,451.37 L193.34,441.88 L200.65,435.47 L209.92,429.3 L220.7,424.27 L235.74,419.9 L249.44,418.49 L266.68,419.53 L283.76,421.21 L283.76,421.21 L366.24,428.42 L366.24,428.42 L373.54,429.75 L380.12,431.71 L386.4,434.87 L393.74,440.7 L393.74,440.7 L514.21,588.85 L551.24,634.38 L551.24,634.38 L557.53,641.66 L561.56,644.5 L565.34,646.61 L569.81,647.75 L574.52,648.47 L580.41,648.16 L587.4,646.28 L591.77,644.34 L596.21,640.79 L600.42,635.19 L602.4,629.28 L603.54,622.93 L603.61,616.25 L601.84,610.06 L599.62,604.46 L599.62,604.46 L482.05,324.36 L482.05,324.36 L471.71,296.72 L471.71,296.72 L400.73,127.86 L400.73,127.86 L399.16,122.07 L398.21,115.91 L398.39,110.05 L399.63,104.51 L401.76,98.8 L404.25,94.54 L407.23,90.84 L411.31,87.12 L416.01,84.21 L421.53,82.1 L430.41,81.05 L430.41,81.05 L580.27,80 L580.27,80 L587.25,80.72 L592.16,82.58 L596.66,85.41 L601,89.2 L603.77,93.14 L605.5,97.43 L606.39,102.01 L606.78,105.75 L606.68,109.76 L605.67,114.02 L603.84,118.06 L600.08,123.24 L595.59,127.64 L595.59,127.64 L558.7,154.91 L550.13,164.23 L544.36,172.71 L540.97,178.9 L538.49,185.28 L536.84,191.15 L535.67,196.7 L534.98,201.85 L535.1,210.25 L540.23,307.43 L540.93,314.34 L541.52,318.83 L542.46,323.68 L543.96,330.24 L545.73,335.9 L548.77,343.74 L551.45,349.93 L555.17,356.42 L559.31,362.86 L564.85,369.68 L570.52,375.59 L576.82,381.74 L584.09,386.93 L592.25,392.02 L600.41,396.14 L609.52,399.34 L618.7,402.19 L633.56,404.75 L646.08,406.55 L850.35,434.98 L850.35,434.98 L860.96,437.32 L873.06,441.38 L879.27,444.51 L885.01,448.36 L892.16,453.8 L898.36,460.29 L904.88,468.64 L909.52,477.17 L913.37,486.87 L915.31,494.03 L916.61,503.23 L916.89,511.41 L916.69,519.22 L915.98,527.55 L914.86,535.57 L913.03,542.69 L910.86,548.98 L907.08,556.76 L902.54,564.99 L896.47,573.21 L889.18,581.12 L877.35,591.13 L877.35,591.13 L756.7,686.79 L693.26,738.65 L637.89,784.19 L637.89,784.19 L563.84,843.61 L489.79,903.66 L474.52,915.23 L467.23,918.62 L461.45,920 L454.44,919.46 L447.74,917.25 L441.58,913.43 L437.84,908.92 L434.4,902.59 L433.34,896.17 L434.38,887.75 L436.86,880.62 Z" stroke="#FFFFFF" stroke-width="7" stroke-linejoin="round" stroke-linecap="round" fill="none" />
</svg>
