<svg viewBox="0 0 1000 1000" xmlns="http://www.w3.org/2000/svg" fill="none">
  <!-- Circuit geometry © OpenStreetMap contributors (ODbL) -->
  <path d="M229.88,571.09 L226.05,684.21 L223.86,742.6 L222.7,782.54 L221.52,823.25 L220.43,860.52 L219.76,874.55 L219,888.17 L218.56,896.72 L218.52,901.68 L233.17,913.32 L227.31,911.81 L226.16,911.47 L225.44,911.23 L224.77,910.97 L224.2,910.7 L223.61,910.39 L223.02,910.03 L222.45,909.58 L221.81,909.04 L221.23,908.47 L220.63,907.79 L220.12,907.11 L219.73,906.46 L219.39,905.81 L219.06,905.05 L218.81,904.32 L218.67,903.64 L218.59,902.97 L218.54,902.38 L218.52,901.68 L233.17,913.32 L235.16,913.84 L255.49,918.36 L260.67,919.51 L261.79,919.77 L262.44,919.92 L262.93,919.98 L263.36,920 L263.87,919.98 L264.61,919.91 L265.36,919.79 L266.07,919.61 L266.72,919.35 L267.39,919.04 L268.1,918.66 L268.74,918.25 L269.27,917.82 L269.79,917.3 L270.31,916.7 L270.79,916.05 L271.18,915.43 L271.55,914.71 L271.85,914.01 L272.2,913.03 L272.51,911.95 L272.51,911.95 L283.08,872.56 L283.95,869.36 L287.54,856.08 L288.86,851.19 L294.09,833.48 L297.98,820.21 L297.98,820.21 L299.6,815.34 L300.89,811.83 L302.04,809.02 L303.06,806.67 L303.87,804.95 L304.66,803.28 L305.46,801.73 L306.35,800.21 L307.33,798.76 L308.42,797.35 L309.25,796.3 L310.26,795.11 L310.98,794.37 L312.2,793.18 L313.79,791.77 L315.22,790.56 L316.6,789.53 L318.2,788.46 L319.73,787.43 L321.17,786.56 L322.64,785.72 L323.97,785.04 L325.28,784.44 L326.79,783.79 L328.37,783.22 L329.84,782.81 L331.21,782.51 L332.54,782.25 L334.1,782 L335.61,781.82 L337.12,781.7 L338.62,781.66 L340.14,781.65 L341.57,781.7 L343.15,781.79 L344.74,781.95 L346.46,782.19 L348.01,782.47 L349.57,782.81 L350.85,783.15 L352.15,783.61 L353.35,784.08 L354.57,784.61 L355.73,785.14 L356.83,785.64 L357.97,786.24 L359.14,786.93 L360.54,787.91 L370.2,796.04 L388.96,811.8 L390.65,813.1 L391.75,813.92 L392.7,814.59 L393.63,815.18 L394.5,815.63 L395.23,815.94 L396.6,816.5 L397.99,816.99 L398.98,817.27 L400.12,817.52 L401.16,817.69 L402.45,817.88 L404,818.06 L405.69,818.21 L407.74,818.31 L409.65,818.41 L411.42,818.47 L413.28,818.44 L415.01,818.35 L417.02,818.12 L418.93,817.84 L421.08,817.43 L423.04,816.95 L424.78,816.44 L426.36,815.86 L428.16,815.11 L430,814.24 L431.6,813.29 L433.11,812.28 L434.49,811.12 L435.75,809.91 L437.04,808.43 L438.22,806.88 L439.27,805.41 L440.39,803.81 L441.31,802.27 L442.15,800.63 L442.85,798.99 L443.63,797.03 L444.38,795.03 L444.38,795.03 L447.45,786.25 L463.6,731.36 L478.56,682.53 L497.4,619.15 L497.4,619.15 L497.72,617.71 L497.99,616.43 L498.22,615.26 L498.46,613.78 L498.63,612.32 L498.8,610.83 L498.91,609.43 L499.02,608.02 L499.08,606.31 L499.11,604.64 L499.06,603 L498.97,601.39 L498.85,599.9 L498.73,598.45 L498.57,597.06 L498.38,595.76 L498.15,594.45 L497.86,593.3 L497.55,592.19 L497.15,590.95 L496.65,589.6 L496.09,588.3 L495.54,587.15 L494.94,585.97 L494.26,584.77 L493.56,583.59 L492.95,582.65 L492.3,581.7 L491.64,580.85 L491.04,580.09 L490.38,579.34 L489.7,578.6 L483.93,572.24 L483.39,571.53 L482.79,570.61 L482.26,569.72 L481.73,568.81 L481.25,567.9 L480.79,566.94 L480.3,565.88 L479.91,564.83 L479.61,563.89 L479.3,562.9 L479.04,561.96 L478.84,561.02 L478.67,559.97 L478.54,558.89 L478.44,557.88 L478.37,556.8 L478.33,555.78 L478.29,554.65 L478.29,553.44 L478.3,552.35 L478.37,551.28 L478.47,550.36 L478.58,549.5 L478.77,548.49 L478.97,547.54 L479.2,546.65 L479.49,545.55 L479.8,544.5 L480.14,543.47 L480.5,542.37 L480.89,541.26 L481.31,540.17 L481.72,539.11 L482.18,538.07 L482.59,537.07 L482.92,536.3 L483.29,535.52 L483.71,534.78 L484.27,533.8 L484.71,533.07 L485.21,532.32 L485.88,531.34 L486.56,530.39 L486.56,530.39 L491.76,523.33 L519.62,487.61 L571.19,422.15 L617.75,363.33 L626.58,351.98 L632.37,344.76 L636.8,339.63 L638.59,337.55 L684.18,284.31 L705.28,259.66 L728.13,233.56 L773.87,181.43 L773.87,181.43 L775.38,179.44 L777.35,176.85 L778.86,174.71 L779.88,173.22 L780.57,171.99 L780.94,170.98 L781.23,169.73 L781.41,168.42 L781.48,167.19 L781.48,165.9 L781.4,164.57 L781.22,163.29 L780.95,161.91 L780.64,160.64 L780.3,159.55 L779.89,158.52 L779.36,157.5 L778.83,156.7 L778.19,155.88 L777.34,154.89 L774.28,151.53 L762.22,140.04 L761.63,139.52 L760.94,138.98 L760.4,138.56 L759.94,138.25 L759.43,137.93 L759.03,137.69 L758.56,137.45 L758.06,137.26 L757.57,137.09 L756.75,136.86 L755.79,136.64 L755.19,136.54 L754.49,136.44 L753.7,136.36 L752.5,136.31 L751.26,136.26 L749.86,136.31 L748.58,136.41 L747.32,136.54 L746.16,136.7 L745.19,136.91 L744.1,137.19 L743.1,137.55 L742.29,137.94 L741.47,138.43 L740.71,138.91 L739.99,139.41 L739.26,139.98 L738.56,140.58 L737.95,141.14 L736.84,142.33 L736.84,142.33 L703.54,181.23 L685.95,201.37 L672.22,216.5 L658.75,230.71 L627.01,262.98 L590.85,299.25 L580.32,309.09 L580.32,309.09 L575.55,313.25 L571.43,316.67 L567.13,320.06 L562.05,323.74 L558.41,326.25 L555.67,328.03 L552.99,329.58 L549.85,331.16 L545.81,333.1 L542.22,334.7 L536.62,336.81 L531.55,338.39 L525.65,339.85 L521.4,340.71 L517.38,341.3 L514.26,341.71 L510.85,342.05 L507.84,342.29 L504.88,342.42 L502.06,342.41 L499.65,342.25 L497.78,342.05 L495.68,341.73 L493.62,341.27 L491.78,340.78 L490.33,340.29 L488.36,339.5 L486.47,338.6 L484.65,337.54 L483.03,336.44 L481.82,335.55 L480.68,334.6 L479.57,333.56 L478.56,332.35 L477.53,331.07 L476.51,329.69 L475.34,327.9 L474.19,325.95 L473.37,324.41 L473.06,323.73 L472.75,322.98 L472.45,322.19 L472.09,321.13 L471.79,320.13 L471.51,319 L471.25,317.89 L471.04,316.8 L470.86,315.63 L470.75,314.64 L470.66,313.64 L470.6,312.58 L470.61,311.32 L470.67,310.15 L470.78,308.93 L470.93,307.62 L471.26,305.86 L471.65,304.24 L472.07,302.66 L472.55,301.21 L472.99,300.01 L473.45,298.79 L474.08,297.35 L474.71,296.05 L475.27,295 L475.95,293.93 L477.08,292.32 L479.22,289.98 L482.26,286.84 L482.26,286.84 L496.33,273.97 L502.5,269.02 L509.3,263.65 L532.33,245.92 L538.54,241.01 L546.68,234.36 L556.01,226.56 L567.89,215.87 L579.27,205.55 L587.37,197.47 L594.03,190.79 L600.17,184.13 L606.8,176.74 L612,170.5 L618.39,162.62 L624.51,154.7 L624.51,154.7 L628.67,148.95 L629.82,147.15 L630.74,145.72 L631.69,143.97 L632.52,142.3 L633.2,140.68 L633.73,139.1 L634.31,137.24 L634.82,135.37 L635.24,133.57 L635.55,131.87 L635.82,130.12 L636.06,128.13 L636.22,126.1 L636.24,125.03 L636.24,123.58 L636.15,122.05 L635.99,120.08 L635.77,118.13 L635.45,115.98 L635.07,113.81 L634.65,111.75 L634.18,109.97 L633.62,108.06 L633.04,106.37 L632.36,104.69 L631.77,103.43 L631.11,102.07 L630.32,100.65 L629.47,99.24 L628.6,97.88 L627.74,96.65 L626.81,95.44 L625.96,94.33 L625.12,93.34 L624.22,92.34 L623.24,91.32 L622.16,90.31 L620.9,89.2 L619.6,88.08 L618.23,87.02 L617.14,86.25 L614.59,84.79 L612.99,84 L611.26,83.26 L609.64,82.65 L608.27,82.15 L606.99,81.72 L605.75,81.37 L604.52,81.07 L603.26,80.83 L602.07,80.67 L600.78,80.52 L599.49,80.42 L598.04,80.31 L596.03,80.17 L594.08,80.07 L592.16,80 L590.25,80.03 L588.28,80.14 L586.31,80.32 L584.53,80.52 L582.88,80.77 L581.34,81.06 L579.65,81.49 L577.89,82.01 L575.8,82.8 L573.48,83.78 L569.87,85.39 L569.87,85.39 L569.2,85.71 L568.11,86.31 L566.97,86.99 L565.47,87.93 L563.75,88.99 L562.09,90.09 L560.53,91.29 L558.5,92.94 L554.96,96.06 L552.12,98.69 L548.68,102.13 L545.81,105.17 L542.69,108.77 L539.34,113.31 L539.34,113.31 L529.39,127.85 L519.85,141.62 L517.47,145.01 L515.17,148.1 L512.94,150.85 L510.03,154.1 L507.05,157.17 L504,160.04 L500.28,163.27 L496.46,166.29 L491.88,169.57 L485.3,173.88 L475.52,180.11 L465.6,186.39 L402.47,226.71 L402.47,226.71 L401.69,227.24 L401.21,227.61 L400.89,227.88 L400.53,228.19 L400.19,228.52 L399.75,228.96 L399.42,229.33 L399.07,229.72 L398.71,230.17 L398.34,230.63 L397.96,231.16 L397.58,231.72 L397.24,232.24 L396.94,232.71 L396.65,233.21 L396.4,233.71 L396.13,234.32 L395.86,234.92 L395.67,235.4 L395.5,235.84 L395.33,236.31 L395.18,236.78 L395.06,237.29 L394.98,237.76 L394.9,238.32 L394.84,238.99 L394.79,239.6 L394.78,240.21 L394.77,240.67 L394.78,241.27 L394.81,242.03 L394.87,242.71 L394.95,243.36 L395.03,243.91 L395.14,244.56 L395.28,245.25 L400.15,266.15 L400.49,267.59 L400.69,268.41 L400.81,269.03 L400.91,269.65 L400.96,270.15 L401,270.77 L401.01,271.42 L400.98,271.98 L400.95,272.55 L400.89,273.14 L400.81,273.67 L400.73,274.16 L400.63,274.63 L400.53,275.1 L400.39,275.62 L400.22,276.15 L400.05,276.62 L399.86,277.08 L399.63,277.58 L399.37,278.14 L399.1,278.68 L398.76,279.21 L398.4,279.71 L398,280.19 L397.49,280.74 L396.99,281.24 L396.55,281.62 L396.07,282.03 L395.56,282.41 L394.78,282.96 L393.78,283.63 L393.78,283.63 L317.17,330.5 L317.17,330.5 L309.79,335.45 L306.77,337.73 L303.48,340.43 L301.71,342 L299.76,343.89 L297.85,345.85 L295.53,348.26 L292.51,351.7 L289.63,355.27 L287.08,358.77 L284.94,361.84 L282.94,364.88 L281.5,367.24 L279.95,369.93 L278.5,372.59 L276.87,375.71 L275.18,379.3 L271.65,387.75 L267.4,398.64 L263.18,409.12 L258.88,421.24 L254.66,434.24 L251.05,446.55 L248.24,456.91 L245.93,466.58 L244.39,473.14 L239.77,495.2 L237.43,507.11 L235.61,517.79 L234.39,525.44 L233.21,534.22 L232.42,541.17 L231.65,547.64 L231.19,552.88 L230.42,561.96 L229.88,571.09 Z" stroke="#FFFFFF" stroke-width="7" stroke-linejoin="round" stroke-linecap="round" fill="none" />
</svg>
