<svg viewBox="0 0 1000 1000" xmlns="http://www.w3.org/2000/svg" fill="none">
  <!-- Circuit geometry: bacinger/f1-circuits (MIT) -->
  <path d="M269.11,588.43 L181.07,427.26 L146.52,364.7 L144.24,353 L145.72,340.86 L150.12,331.43 L157.03,324.54 L167.65,318.27 L179.81,316.38 L191.29,318.46 L279.16,371.79 L287.55,374.13 L298.63,374.51 L311.36,370.77 L321.63,361.16 L327.52,350.66 L328.94,340.03 L326.94,263.43 L328.2,253 L331.34,244.02 L335.57,235.41 L341.62,228.33 L466.94,89.42 L473.85,83.8 L484.53,80.82 L494.8,80 L505.25,82.72 L513.42,87.53 L550.64,123.08 L554.81,130.6 L556.7,140.91 L556.3,149.89 L553.78,158.69 L548.36,166.59 L466.94,256.03 L463.4,262.55 L463.17,269.63 L465.06,275.89 L469.05,280.51 L474.94,284.24 L483.04,285.32 L488.7,283.67 L496.06,280.32 L638.28,223.39 L647.59,222.38 L659.07,224.03 L668.72,228.39 L676.25,235.98 L680.88,245.6 L682.7,255.08 L682.53,263.43 L679.79,271.4 L673.97,280.64 L669.12,285.19 L658.04,294.24 L645.71,308.41 L635.43,322.64 L626.87,337.82 L619.96,355.59 L616.02,367.74 L611.79,389.05 L608.25,398.16 L602.2,405.88 L595.69,410.75 L586.96,414.67 L506.11,434.34 L499.03,438.52 L493.61,443.33 L490.47,451.3 L489.21,459.01 L490.64,470.65 L499.43,482.16 L514.5,497.41 L537.74,515.12 L562.01,528.91 L586.67,537.7 L611.34,542.95 L635.43,545.04 L661.75,542.51 L782.56,529.1 L793.64,531.44 L806.43,537.51 L816.25,545.04 L825.44,557.56 L853.48,609.68 L855.76,618.66 L855.76,626.82 L854.5,635.36 L848.68,646.24 L805.17,716.45 L799.69,721.7 L791.58,725.43 L783.19,727.96 L771.89,727.52 L632.97,699.5 L623.1,699.5 L613.28,702.41 L604.94,708.1 L599.06,715.38 L502.34,903.49 L494.58,912.47 L485.78,917.91 L473.05,920 L463.4,918.92 L453.98,914.94 L444.39,906.59 L269.11,588.43 Z" stroke="#FFFFFF" stroke-width="7" stroke-linejoin="round" stroke-linecap="round" fill="none" />
</svg>
