<svg viewBox="0 0 1000 1000" xmlns="http://www.w3.org/2000/svg" fill="none">
  <!-- Circuit geometry © OpenStreetMap contributors (ODbL) -->
  <path d="M296.78,889.39 L305.05,730.58 L308.33,718.85 L316.57,709.39 L329.92,702.84 L398.36,676.64 L414.91,669.77 L428.65,658.49 L437.46,646.04 L442.76,630.63 L444.07,615.58 L428.31,447.68 L424.06,434.56 L417.25,424.9 L405.55,415.95 L392.52,412.55 L366.14,411.05 L348.48,408.67 L332.45,403.88 L325.78,400.92 L315.81,396.49 L298.1,385.04 L285.21,373.43 L274.23,359.44 L196.64,245.59 L183.42,221.53 L176.97,201.14 L174.45,181.08 L175.38,160.47 L178.99,141.79 L183.4,126.87 L191.04,110.65 L204.65,90.86 L212.79,85.33 L221.89,84.98 L230.37,88.55 L237.56,97.11 L240.62,107.58 L240.76,122.33 L231.54,190.13 L231.69,201.48 L237.32,211.89 L246.51,216.94 L256.1,217.48 L272.49,214.09 L745.89,80 L758.24,81.36 L769.2,85.71 L778.14,93.9 L783.38,101.95 L785.86,112.66 L790.06,249.22 L787.51,259.01 L780.78,268.06 L771.19,274.04 L760.64,274.83 L747.28,275.09 L738.44,275.74 L730.94,280.47 L725.86,286.83 L714.37,310.91 L713.8,320.78 L717.68,331.6 L729.32,347.61 L747.38,368.16 L762.11,381.33 L813.42,422.1 L819.27,429.98 L822.3,440.73 L824.57,509.62 L825.55,566.88 L824.76,579.28 L820.76,589.42 L814.64,597.96 L735.11,689.7 L724.92,699.31 L714.28,704.34 L701.61,706.64 L677.56,706.26 L661.86,707.45 L646.28,710.64 L631.35,716.14 L615.83,725.73 L600.95,737.2 L590.12,751 L572.54,774.8 L561.95,787.74 L554.43,794.08 L549.3,798.42 L530.05,811.21 L372.66,896.81 L334.9,917.35 L323.05,920 L312.78,917.42 L304.22,911.57 L297.74,901.37 L296.78,889.39 Z" stroke="#FFFFFF" stroke-width="7" stroke-linejoin="round" stroke-linecap="round" fill="none" />
</svg>
