<svg viewBox="0 0 1000 1000" xmlns="http://www.w3.org/2000/svg" fill="none">
  <!-- Circuit geometry © OpenStreetMap contributors (ODbL) -->
  <path d="M631.23,203.08 L654.86,207.29 L795.75,232.42 L795.75,232.42 L806.77,234.78 L813.76,236.71 L820.61,238.98 L827.41,242.1 L834.49,246.06 L839.69,249.74 L844.07,253.29 L849.98,258.37 L849.98,258.37 L898.61,302.61 L908.85,311.94 L908.85,311.94 L912.23,315.25 L914.45,317.88 L916,320.39 L917.32,323.11 L918.48,326.46 L919.36,330.55 L919.9,334.62 L920,338.44 L919.85,341.61 L919.43,344.36 L918.78,347.39 L896.54,433.69 L895.71,436.27 L894.79,438.85 L893.63,441.45 L892.4,443.7 L891.25,445.38 L889.93,446.86 L888.5,448.14 L886.82,449.5 L885.39,450.48 L883.32,451.46 L881.38,452.23 L879.71,452.75 L878.14,453.12 L876.56,453.47 L875.04,453.58 L873.44,453.57 L871.69,453.43 L870.18,453.2 L868.61,452.86 L867.38,452.49 L866.15,452.01 L865.14,451.44 L864.02,450.62 L862.84,449.74 L861.63,448.71 L860.39,447.31 L859.38,445.81 L858.59,444.15 L857.67,442.06 L856.97,440.04 L856.32,437.79 L855.8,435.47 L855.8,435.47 L845.78,373.28 L837.91,324.42 L836.74,319.82 L834.91,315.06 L832.75,310.49 L830.84,307.4 L828.36,304.4 L826.42,302.31 L823.92,300.21 L821.54,298.81 L818.09,297.33 L813.34,295.59 L728.54,270.08 L654.15,247.7 L654.15,247.7 L649.79,246.6 L646.73,246.01 L643.6,245.62 L640.35,245.48 L638.29,245.55 L636.2,245.77 L634.13,246.12 L632.33,246.64 L630.75,247.33 L629.44,247.96 L627.7,249.02 L626.14,250.16 L624.54,251.53 L623,252.93 L621.43,254.59 L620.07,256.41 L618.69,258.46 L617.53,260.54 L616.04,263.56 L616.04,263.56 L561.91,382.09 L536.65,437.43 L450.55,626.02 L450.55,626.02 L444.34,639.64 L441.94,644.26 L439.74,647.68 L437.59,650.43 L435.92,652.56 L434.27,654.18 L431.96,655.84 L429.14,657.49 L425.84,658.97 L422.66,660.09 L418.7,661.18 L413.53,661.95 L408.12,662.26 L403.01,662.08 L357.96,660.23 L354.14,660.51 L351.71,660.92 L349.29,661.6 L346.94,662.79 L344.7,664.1 L342.59,665.7 L341.43,666.72 L340.29,667.95 L339.02,669.64 L337.62,671.94 L336.51,674.36 L335.3,677.56 L334.34,681.59 L333.81,685.39 L329.63,738.23 L328.88,742.54 L327.61,746.93 L325.79,751.43 L323.18,756.24 L320.67,760.09 L316.52,765.14 L311.89,769.16 L306.53,773.1 L298.79,777.97 L289.54,783.61 L280.54,788.47 L275.86,790.61 L271.06,792.32 L264.64,794.25 L260.6,795.15 L257.02,795.95 L253.73,796.69 L246.76,797.86 L241.43,798.35 L236.19,798.73 L230.03,798.63 L230.03,798.63 L111.12,788.38 L98.13,787.26 L98.13,787.26 L92.35,786.6 L90.19,786.13 L88.18,785.44 L86.55,784.61 L85.48,783.77 L84.3,782.6 L83.06,781.19 L82.33,780.22 L81.56,778.91 L80.99,777.62 L80.6,776.38 L80.31,774.67 L80.06,772.35 L80,770.23 L80.1,768.27 L80.41,766.37 L80.86,764.81 L81.4,763.55 L81.92,762.41 L82.74,761.09 L108,730.99 L109.11,729.9 L110.35,728.87 L111.88,727.9 L113.93,726.8 L116.18,725.89 L118.48,725.3 L120.97,724.93 L123.38,724.84 L125.95,725.15 L127.98,725.66 L130.26,726.45 L130.26,726.45 L184.51,746.47 L184.51,746.47 L187.87,747.41 L190.32,747.85 L193.46,748.09 L196.72,748.09 L199.32,747.85 L201.97,747.27 L204.01,746.46 L206.17,745.1 L208.32,743.51 L210.62,741.55 L212.94,739.46 L215.17,737.37 L215.17,737.37 L337.16,610.71 L343.54,604.1 L367.37,577.39 L373.67,570.14 L382.35,559.34 L410.27,521.65 L508.29,368.94 L508.29,368.94 L514.06,358.28 L515.31,355.76 L515.83,354.44 L516.49,352.69 L516.99,350.87 L517.38,349.03 L517.65,347.31 L517.86,345.58 L518,343.53 L518,341.48 L517.99,339.5 L517.87,337.53 L517.59,335.66 L517.15,333.55 L516.63,331.91 L516.08,330.51 L515.32,329.06 L514.42,327.72 L513.36,326.33 L512.48,325.2 L511.41,324.07 L509.91,322.63 L508.13,321.19 L506.46,320.05 L504.09,318.81 L502.19,318.1 L500.11,317.28 L497.45,316.32 L494.39,315.62 L491.87,315.24 L489.23,314.98 L485.59,314.88 L482.38,315.05 L478.6,315.41 L471.38,316.65 L462.5,318.84 L452.93,321.72 L442.77,325.54 L432.17,330.25 L421.55,335.3 L410.06,341.41 L410.06,341.41 L254.11,428.7 L254.11,428.7 L249.96,430.96 L245.31,433.06 L241.11,434.54 L236.66,435.71 L233.2,436.45 L228.75,437.02 L223.23,437.19 L192.11,436.15 L187.62,435.63 L183.66,435 L181.2,434.3 L179.25,433.35 L177.67,432.35 L176.45,431.32 L175.09,430.07 L173.55,428.61 L172.39,427.32 L171.28,425.94 L170.3,424.56 L169.51,423.18 L168.68,421.27 L167.97,419.42 L167.41,417.71 L166.86,415.87 L166.52,414.25 L166.32,412.55 L166.21,410.81 L166.19,409.18 L166.21,407.81 L166.33,406.58 L166.59,405.13 L166.88,403.64 L167.26,402.05 L167.79,400.29 L168.46,398.15 L169.08,396.39 L169.9,394.45 L170.71,392.73 L171.63,391.04 L172.73,389.23 L174.56,386.69 L176.86,384.2 L179.95,381.52 L183.25,379 L186.89,376.49 L190.48,374.17 L193.81,372.22 L202.01,367.95 L210.18,364.04 L218.21,360.33 L218.21,360.33 L243.76,349.64 L581.1,207.76 L581.1,207.76 L588.04,205.1 L594.8,203.1 L600.9,201.9 L607.72,201.27 L615.17,201.34 L623.16,202.08 L631.23,203.08 Z" stroke="#FFFFFF" stroke-width="7" stroke-linejoin="round" stroke-linecap="round" fill="none" />
</svg>
