<svg viewBox="0 0 1000 1000" xmlns="http://www.w3.org/2000/svg" fill="none">
  <!-- Circuit geometry © OpenStreetMap contributors (ODbL) -->
  <path d="M292.12,185.11 L340.43,181.67 L351.88,181.76 L363.03,183.05 L373.83,185.45 L384.11,189.22 L394.23,194.79 L403.65,201.39 L412.48,209.19 L420.08,218.04 L510.59,372.13 L515.11,377.59 L520.63,382.13 L526.37,385.81 L533.4,388.73 L540,390.1 L546.69,390.36 L553.8,389.67 L560.66,387.54 L584.56,376.68 L595.79,373.65 L608.13,373.47 L620.48,375.87 L631.44,381.7 L640.7,389.42 L647.04,400.38 L651.67,411.69 L653.04,424.43 L647.96,569.69 L648.5,574.44 L650.81,579.33 L654.33,583.27 L658.95,586.18 L663.41,587.81 L668.9,588.42 L674.38,587.73 L680.16,585.4 L742.11,533.58 L880.27,415.92 L883.88,412.85 L887.65,410.5 L891.72,408.7 L896.05,407.67 L900.5,407.71 L905,408.66 L909.16,410.37 L912.91,412.85 L915.67,416.32 L917.86,420.01 L919.23,423.78 L920,428.07 L919.92,432.27 L919.23,436.29 L917.56,440.36 L915.11,443.96 L703.69,637.3 L513.36,812.32 L509.73,815.12 L506.6,817.08 L503.76,817.96 L500.16,818.33 L496.46,818.12 L492.79,817.51 L489.66,816.36 L487.22,814.53 L484.99,812.32 L483.13,809.81 L432.76,719.59 L420.79,696.59 L418.24,693.17 L415.47,690.94 L412.22,689.15 L385.91,680.35 L344.47,668.97 L338.99,668.25 L334.14,669.15 L329.86,671.25 L326.1,674.95 L319.99,682.99 L316.86,685.52 L313.41,687.4 L309.81,689.01 L306.04,689.89 L301.71,690.1 L297.55,689.55 L294.21,688.22 L291.16,686.49 L288.47,684.25 L286.31,681.68 L91.96,325.76 L82.85,308.26 L80.98,303.03 L80.04,297.33 L80,292.02 L81.07,286.7 L82.79,281.69 L85.44,276.89 L89.21,272.82 L93.74,269.57 L114.53,257.35 L119.55,255.59 L124.69,255.04 L129.58,255.08 L134.72,255.94 L139.73,257.56 L144.1,259.97 L148.22,263.05 L151.68,266.79 L352.34,553.37 L373.91,585.04 L376.27,587.99 L380.17,590.04 L384.03,591.5 L388.05,592.19 L392.47,591.97 L396.5,591.03 L400.22,589.23 L403.75,586.46 L429.36,560.15 L433.82,554.6 L437.39,548.82 L440.46,542.74 L442.09,535.79 L442.99,528.51 L442.99,521.22 L442.13,513.99 L440.29,506.83 L437.16,500.48 L433.41,494.79 L188.64,228.2 L185.73,222.86 L184.51,217.08 L184.6,211.8 L185.63,206.71 L188.2,202.12 L191.97,198.13 L196.81,195.2 L202.58,193.68 L241.59,189.81 L241.59,189.81 L292.12,185.11 Z" stroke="#FFFFFF" stroke-width="7" stroke-linejoin="round" stroke-linecap="round" fill="none" />
</svg>
