<svg viewBox="0 0 1000 1000" xmlns="http://www.w3.org/2000/svg" fill="none">
  <!-- Circuit geometry © OpenStreetMap contributors (ODbL) -->
  <path d="M591.02,681.49 L714.42,725.49 L714.42,725.49 L793.61,753.78 L802.77,757.05 L907,794.21 L911.4,795.52 L913.88,795.86 L915.79,795.52 L917.26,794.58 L918.5,793.21 L919.3,791.63 L919.79,790.07 L920,788.35 L919.99,787.03 L919.61,785.78 L918.75,784.49 L917.39,783.21 L915.9,782.21 L914.1,781.08 L888.62,764.98 L885.81,762.68 L884.01,760.6 L883.1,759.38 L882.29,758.11 L881.71,756.64 L881.25,754.69 L880.87,752.41 L873.71,700.59 L873.01,695.52 L870.26,676.39 L869.57,673.12 L868.76,670.2 L867.99,668.19 L866.96,666.24 L865.99,664.61 L864.2,662.16 L861.57,659.05 L859.48,656.77 L854.15,652.11 L815.17,619.74 L712.66,535.92 L712.66,535.92 L617.24,457.58 L614.98,456.09 L613.67,455.4 L611.95,454.94 L610.15,454.84 L608.23,455.02 L606.61,455.39 L605.18,455.9 L603.83,456.64 L602.46,457.7 L601.23,458.95 L577.33,487.54 L570.87,495.1 L565.94,500.72 L562.09,504.54 L558.54,507.64 L554.36,510.46 L549.15,512.98 L543.46,514.83 L538.45,516.3 L533.19,517.35 L527.75,517.98 L521.1,517.97 L515.9,517.3 L511.64,516.62 L506.48,515.56 L501.5,514.04 L471.31,503.61 L439.37,492.32 L439.37,492.32 L434.1,490.21 L430.79,488.53 L427.3,486.23 L424.12,483.56 L421.11,480.25 L418.29,476.51 L415.78,472.49 L413.96,468.9 L412.87,465.83 L410.83,458.74 L410.83,458.74 L394.72,355.57 L393.78,351.37 L392.81,347.78 L391.7,344.59 L390.23,340.95 L388.69,337.92 L387.02,335.45 L385.48,333.54 L383.23,331.04 L380.04,328.26 L376.36,325.5 L343.61,302.11 L341.74,300.94 L339.8,300.05 L338.08,299.56 L336.06,299.15 L334.15,298.99 L332.69,299.04 L331.5,299.15 L330.05,299.38 L328.74,299.65 L327.64,299.93 L326.58,300.29 L325.52,300.72 L324.58,301.16 L323.61,301.68 L322.77,302.15 L321.85,302.82 L321.08,303.51 L320.21,304.45 L319.44,305.43 L318.68,306.5 L317.97,307.75 L317.31,308.95 L316.63,310.34 L316,311.79 L315.45,313.31 L314.9,315.37 L303.82,365.12 L301.97,371.62 L301.13,374.14 L300.29,376.08 L299.29,377.9 L297.56,380.52 L293.55,385.88 L289.12,391.29 L284.57,396.59 L280.85,400.69 L276.35,405.19 L273.18,408.28 L269.34,411.51 L264.68,415.16 L258.07,420.09 L251.7,424.05 L244.02,428.65 L237.33,432.19 L229.07,436.11 L222.24,439.03 L217.19,440.95 L215.74,441.43 L214.43,441.72 L213.18,441.88 L212,441.92 L210.87,441.9 L209.76,441.79 L208.82,441.66 L207.67,441.41 L206.53,441.07 L205.47,440.68 L204.52,440.25 L203.56,439.69 L202.63,439.11 L201.8,438.55 L200.98,437.9 L200.14,437.13 L199.38,436.25 L198.69,435.24 L197.97,434.1 L197.24,432.65 L196.61,431.1 L195.84,428.87 L195.35,427.18 L194.9,425.34 L194.58,423.67 L171.63,280.66 L171.29,278.1 L171.18,276.47 L171.13,274.7 L171.21,273.62 L171.37,272.47 L171.6,271.22 L171.83,270.27 L172.11,269.28 L172.4,268.45 L172.84,267.47 L173.43,266.31 L174.03,265.3 L174.73,264.28 L175.57,263.16 L176.14,262.55 L176.92,261.82 L177.79,261.07 L178.94,260.22 L180.19,259.4 L181.87,258.47 L183.52,257.64 L185.58,256.69 L187.85,255.8 L200.72,251.44 L201.72,250.97 L202.62,250.42 L202.62,250.42 L203.36,249.83 L204.01,249.25 L204.72,248.5 L205.53,247.63 L206.23,246.71 L206.8,245.81 L207.33,244.73 L207.76,243.73 L208.1,242.71 L208.33,241.76 L208.48,240.74 L208.52,239.71 L208.44,238.74 L208.3,237.87 L208.08,236.98 L207.82,236.05 L207.44,235.03 L206.89,233.82 L206.29,232.66 L205.57,231.56 L204.91,230.72 L204.43,230.19 L203.73,229.52 L202.93,228.8 L198.18,225.04 L192.82,221.27 L192.82,221.27 L187.1,217.49 L182.23,214.75 L176.7,212.1 L170.07,209.37 L162.57,207.1 L155.18,205.46 L150.02,204.66 L146.63,204.4 L140.73,204.14 L134.59,204.24 L129.12,204.73 L123.99,205.6 L119.34,206.82 L114.89,208.27 L114.89,208.27 L111.27,209.74 L107.55,211.69 L103.86,214.06 L100.86,216.48 L97.6,219.33 L94.79,222.34 L92.28,225.33 L89.93,228.43 L87.78,231.68 L85.68,235.33 L84.36,238.12 L82.82,241.76 L81.58,245.8 L80.7,249.81 L80.18,254.15 L80,258.53 L80.18,262.87 L80.92,272.36 L80.92,272.36 L86.34,322.99 L87.29,329.96 L88.72,338.73 L90.49,348.25 L92.53,357.94 L95.33,368.95 L98.29,378.44 L101.23,387.22 L104.35,395.59 L107.48,403.64 L110.17,410.08 L113.09,416 L117.06,424.23 L121.98,433.4 L126.84,441.96 L132.1,450.76 L137.98,459.6 L143.83,467.59 L150.1,475.69 L157.49,484.87 L163.78,492.08 L169.89,498.68 L171,499.76 L171.96,500.63 L172.57,501.13 L173.23,501.6 L173.9,501.97 L174.55,502.26 L175.15,502.5 L175.75,502.67 L176.43,502.82 L177.27,502.92 L177.97,502.94 L178.7,502.9 L179.4,502.84 L180.17,502.72 L180.89,502.6 L181.56,502.45 L182.44,502.21 L183.37,501.87 L184.31,501.51 L185.49,501.04 L186.63,500.53 L231.79,477.4 L235.37,475.8 L238.29,474.71 L242.05,473.55 L244.83,472.89 L247.51,472.46 L251.13,472.17 L254.5,472.11 L258.47,472.32 L261.79,472.83 L264.77,473.51 L267.59,474.39 L270.07,475.49 L272.83,476.91 L276.32,478.98 L278.66,480.49 L281.56,482.62 L318.86,512.48 L343.66,531.7 L345.27,533.21 L346.65,534.58 L347.77,535.93 L348.49,537.23 L349.16,538.88 L349.49,540.46 L349.54,542.06 L349.46,543.46 L349.27,544.84 L348.98,546.1 L348.53,547.42 L348.07,548.59 L338.66,571.96 L335.98,578.61 L335.47,580.61 L335.2,582.17 L335.09,583.29 L335.06,584.37 L335.13,585.4 L335.28,586.31 L335.66,587.56 L336.14,588.62 L336.7,589.51 L337.09,589.99 L337.53,590.4 L338.41,591.05 L339.66,591.72 L341.24,592.34 L343.22,593.06 L517.15,655.11 L591.02,681.49 Z" stroke="#FFFFFF" stroke-width="7" stroke-linejoin="round" stroke-linecap="round" fill="none" />
</svg>
