<svg viewBox="0 0 1000 1000" xmlns="http://www.w3.org/2000/svg" fill="none">
  <!-- Circuit geometry © OpenStreetMap contributors (ODbL) -->
  <path d="M317.15,692.81 L305.78,708.19 L286.11,734.8 L286.11,734.8 L266.38,761.26 L262.36,766.9 L262.36,766.9 L257.56,774.07 L254.54,779.19 L252.9,781.92 L251.59,784.23 L250.39,786.52 L249.45,788.77 L248.61,791 L247.8,793.17 L247.15,795.2 L246.57,797.29 L246.04,800.02 L245.49,802.63 L245.06,805.27 L244.84,808.07 L244.75,810.49 L244.84,812.82 L244.85,813.23 L244.91,814.97 L245.07,816.59 L245.28,818.15 L245.85,820.82 L246.45,822.91 L246.91,824.36 L247.67,826.27 L248.49,828.2 L249.31,829.96 L249.99,831.34 L250.84,832.97 L251.79,834.76 L253.23,837.02 L254.41,838.74 L255.63,840.32 L257.27,842.01 L259.39,844.02 L260.98,845.46 L263.03,847.02 L265.26,848.46 L267.34,849.85 L269.6,851.03 L271.38,851.73 L273.7,852.81 L275.84,853.66 L277.9,854.19 L280.17,854.79 L282.6,855.24 L284.84,855.61 L287.01,855.7 L289.38,855.81 L291.46,855.75 L293.44,855.65 L296.26,855.33 L299.5,854.76 L302.47,853.99 L305.55,853.13 L307.95,852.32 L309.98,851.49 L313.04,850.21 L315.51,848.93 L317.9,847.47 L320.01,846.12 L321.76,844.78 L323.84,843.32 L325.87,841.68 L327.55,840.4 L329.2,838.85 L331.12,837.14 L332.94,835.48 L335.08,833.21 L336.06,831.95 L336.37,831.59 L337.13,830.69 L338.59,829.03 L339.64,827.57 L341.1,825.75 L343.13,823.09 L344.42,821.33 L345.77,819.16 L347.13,816.93 L348.46,814.93 L349.63,812.9 L350.79,810.66 L352.55,807.22 L352.55,807.22 L359.73,792.29 L367.36,775.03 L374.88,757.65 L379.71,747.26 L389.19,727.46 L389.19,727.46 L496.96,486.55 L496.96,486.55 L537.06,399.51 L537.06,399.51 L546.27,382.21 L561.84,354.11 L583.92,317.73 L606.28,278.92 L606.28,278.92 L627.3,236.24 L627.3,236.24 L634.05,220.88 L643.74,197.11 L658.24,161.26 L658.24,161.26 L669.57,131.4 L674.79,117.06 L677.64,109.31 L677.64,109.31 L678.61,106.7 L679.63,104.26 L680.76,101.88 L681.98,99.76 L683.33,97.69 L684.58,95.51 L685.68,93.78 L687.05,92.09 L688.7,90.2 L690.48,88.69 L692.27,87.17 L694.41,85.63 L696.75,84.17 L698.92,83.28 L701.2,82.41 L703.57,81.62 L705.44,81.02 L707.58,80.63 L709.49,80.17 L711.85,80 L714.49,80.02 L716.89,80.25 L718.91,80.56 L720.92,81.02 L722.82,81.66 L723.75,82.06 L725.02,82.45 L726.94,83.43 L728.59,84.04 L729.93,84.94 L731.11,85.89 L732.65,87.21 L733.7,88.11 L734.88,89.09 L735.83,90.05 L736.78,90.93 L737.55,91.82 L738.3,92.8 L739.2,93.9 L740,95.09 L740.87,96.43 L741.69,97.74 L742.39,98.96 L743.05,100.26 L743.63,101.52 L744.17,102.93 L744.62,104.57 L745.24,106.39 L745.68,108.08 L745.91,109.33 L746.18,110.57 L746.45,111.73 L746.74,113.18 L746.99,115.66 L747.08,117.21 L747.17,118.65 L747.23,119.76 L747.26,120.6 L747.26,121.38 L747.27,122.33 L747.2,124.02 L747.1,125.61 L747.05,126.85 L746.88,128.35 L746.72,129.87 L746.57,131.31 L746.35,132.93 L746.19,134.5 L746.1,135.45 L746.1,135.45 L745.56,139.37 L734.59,192.71 L734.59,192.71 L734.05,195.44 L733.65,197.71 L733.25,199.67 L733.08,201.37 L732.84,203.16 L732.75,205.1 L732.73,206.79 L732.88,208.38 L733.1,210.07 L733.55,212.12 L734.03,214.06 L734.62,215.44 L735.23,216.91 L736.07,218.69 L737.03,220.4 L738.1,222.12 L739.41,223.8 L740.89,225.33 L742.43,226.72 L745.27,229.08 L745.27,229.08 L747.17,230.37 L748.85,231.45 L776.18,247.46 L778.46,248.96 L778.46,248.96 L781.12,250.91 L782.5,252.3 L784.26,253.99 L786.37,256.04 L787.79,257.62 L789.37,259.57 L790.72,261.59 L791.4,262.9 L791.86,263.75 L792.37,264.78 L793.42,267.17 L794.06,269.12 L794.81,271.47 L795.44,273.51 L796.01,275.94 L796.29,277.85 L796.53,279.73 L796.71,281.89 L796.63,284.41 L796.6,286.88 L796.39,288.73 L796.07,290.68 L795.52,293.01 L794.78,295.9 L793.67,299.42 L792.45,302.42 L791.01,305.04 L789.79,307.23 L789.79,307.23 L734.66,389.16 L734.66,389.16 L709.87,426.66 L692.15,453.26 L677.84,474.89 L677.84,474.89 L676.76,476.63 L675.78,478.18 L674.46,480.19 L673.54,481.75 L672.61,483.27 L671.34,485.61 L670.55,487.15 L669.83,488.72 L669.15,490.54 L668.57,492.37 L668.24,494.04 L667.91,495.69 L667.77,497.34 L667.68,498.8 L667.8,500.77 L667.97,502.48 L668.19,504.39 L668.38,505.59 L668.85,507.89 L669.8,510.54 L670.77,513.2 L672.04,516.1 L672.04,516.1 L685.56,543.04 L685.56,543.04 L686.49,545.52 L687.23,547.78 L687.67,549.68 L688.11,551.67 L688.37,553.33 L688.5,555.45 L688.62,557.52 L688.62,560.28 L688.56,562.42 L688.22,564.82 L687.81,566.51 L687.52,568.24 L687.03,569.96 L686.3,571.9 L685.51,573.5 L684.62,575.09 L683.92,576.43 L682.75,578.39 L681.3,580.57 L679.72,582.8 L678.34,584.46 L677.24,585.66 L676.41,586.79 L676.41,586.79 L624.51,650.4 L624.51,650.4 L572.48,713.23 L572.48,713.23 L566.29,721.04 L566.29,721.04 L565.19,722.55 L564.26,723.74 L563.16,725.1 L562.05,726.3 L561.04,727.36 L559.51,728.69 L558.17,729.86 L556.85,730.92 L555.56,731.97 L554.07,732.9 L552.46,733.78 L550.68,734.65 L549.01,735.4 L547.59,735.98 L546.26,736.44 L544.74,736.9 L543.38,737.29 L542.02,737.62 L540.55,737.83 L539.26,738.02 L538,738.24 L536.6,738.35 L534.72,738.46 L533.47,738.48 L531.92,738.53 L530.29,738.49 L528.82,738.43 L527.39,738.31 L525.93,738.3 L525.93,738.3 L491.27,737.21 L491.27,737.21 L488.45,737.27 L485.62,737.37 L482.36,737.5 L478.89,737.75 L476.79,738.01 L474.73,738.23 L473.15,738.44 L471.4,738.69 L469.65,738.98 L467.95,739.32 L466.5,739.74 L465.04,740.1 L463.21,740.66 L461.86,741.18 L460.39,741.7 L458.76,742.38 L457.17,743.13 L455.61,743.91 L453.78,744.98 L451.99,745.96 L450.05,746.99 L448.38,748.09 L446.65,749.18 L445.01,750.31 L443.34,751.55 L441.81,752.96 L440.33,754.41 L438.9,755.91 L437.52,757.45 L436.19,759.04 L434.9,760.68 L433.71,762.44 L432.72,764.1 L431.54,766.02 L430.63,767.51 L429.36,769.48 L428.5,771.32 L427.65,772.88 L426.66,774.98 L425.4,777.57 L425.4,777.57 L420.8,788.55 L417.04,799.75 L414.69,806.85 L412.72,813.27 L409.24,823.62 L399.38,852.28 L399.38,852.28 L396.35,861.25 L393.76,867.99 L390.86,874.64 L390.86,874.64 L389.86,878.14 L388.7,880.56 L387.17,883.49 L385.88,885.74 L384.44,887.93 L382.97,889.98 L381.51,892.15 L379.9,894.29 L378.05,896.41 L376.27,898.3 L374.65,900.04 L372.43,902.24 L370.14,904.2 L368.15,905.76 L365.37,907.65 L363.16,909.02 L361.01,910.28 L358.5,911.58 L356.23,912.78 L353.83,914.11 L351.14,915.35 L348.47,916.37 L345.8,917.28 L343.12,918.2 L340.56,918.73 L337.96,919.18 L334.92,919.52 L332.1,919.84 L329.25,919.96 L326.28,920 L323.26,919.92 L320.82,919.7 L317.91,919.46 L315.23,919.1 L312.44,918.67 L309.78,918.23 L306.99,917.49 L303.8,916.5 L300.93,915.68 L295.76,913.99 L290.44,912.13 L286.91,910.66 L283.82,909.19 L280.04,907.51 L280.04,907.51 L277.82,906.5 L274.48,904.79 L271.87,903.55 L269,902.17 L265.38,900.33 L263.65,899.44 L261.3,898.31 L258.35,896.7 L254.32,894.44 L251.54,892.98 L248.76,891.5 L245.59,889.8 L242.94,888.43 L240.1,886.81 L240.1,886.81 L236.54,884.76 L234.07,883.26 L231.22,881.46 L228.09,879.47 L225.96,878 L223.75,876.18 L220.99,873.77 L218.51,871.42 L216.65,869.3 L215,867.27 L213.32,864.98 L211.43,861.93 L209.85,858.95 L208.33,855.68 L207.26,852.91 L206.34,850.38 L205.32,846.93 L204.8,844.7 L204.35,842.28 L203.88,839.49 L203.49,835.89 L203.46,833.13 L203.29,830.2 L203.31,826.47 L203.61,821.91 L203.81,818.96 L203.92,817.45 L204.11,815.6 L204.39,813.76 L204.71,811.53 L205.17,808.31 L205.84,804.09 L206.67,799.92 L206.67,799.92 L224.87,705.49 L224.87,705.49 L228.44,686.36 L235.6,649.76 L235.6,649.76 L235.98,647.88 L236.44,645.74 L237.08,643.38 L237.5,642.07 L237.93,640.81 L238.58,639.07 L239.83,636.56 L241.15,634.66 L242.99,632.45 L244.71,630.67 L246.94,628.73 L249.02,627.19 L251.3,625.69 L253.08,624.64 L254.78,623.77 L256.83,622.93 L259,622.2 L261.11,621.75 L263.4,621.24 L265.19,621.03 L267.34,620.94 L269.95,620.79 L269.95,620.79 L300.22,620.51 L300.22,620.51 L302.94,620.39 L305.53,620.25 L308.56,619.85 L311.4,619.25 L314.07,618.44 L316.65,617.41 L318.88,616.33 L321.54,614.89 L324.22,612.97 L326.59,610.92 L328.47,609.25 L330.43,607.18 L332.09,605.25 L333.99,602.61 L335.59,599.87 L336.72,597.44 L337.61,595.24 L338.32,593.32 L338.92,591.55 L339.96,588.17 L339.96,588.17 L363.89,504.61 L368.59,488.2 L371.74,477.2 L380.65,446.42 L389.37,416.02 L393.49,401.66 L393.49,401.66 L394.88,397.4 L396.02,394.62 L396.88,392.28 L397.97,389.65 L398.97,387.82 L399.8,386.38 L400.92,384.42 L401.97,382.71 L403.19,380.93 L404.66,379.15 L405.77,377.87 L406.95,376.68 L408.16,375.43 L409.82,373.94 L410.96,372.86 L412,372.09 L413.22,371.19 L414.75,370.16 L416.41,369.24 L418.07,368.44 L419.86,367.64 L421.68,366.86 L423.53,366.28 L425.66,365.72 L427.82,365.22 L429.09,365.08 L430.15,364.84 L431.86,364.62 L433.91,364.38 L435.62,364.32 L437.26,364.35 L438.81,364.39 L440.19,364.43 L442.14,364.66 L443.59,365 L445.39,365.4 L446.82,365.91 L448.71,366.73 L450.33,367.57 L452.07,368.36 L453.61,369.19 L455.01,370.03 L456.46,371.05 L457.87,372.08 L459.24,373.26 L460.81,374.57 L461.98,375.76 L463.37,377.25 L465.1,379.24 L466.49,381.15 L467.79,383.32 L469.27,386.19 L470.24,388.39 L471.15,390.81 L471.94,393.18 L472.58,396 L472.86,397.89 L473.19,400.02 L473.34,401.49 L473.3,404.05 L473.2,406.42 L472.93,408.97 L472.77,410.69 L472.68,412.2 L472.11,414.97 L471.64,416.89 L471.25,418.38 L470.63,420.17 L470.09,421.64 L469.23,423.65 L468.24,426.15 L467.31,428.07 L466.24,429.91 L465.11,432.11 L464.18,433.89 L462.84,436.29 L462.05,437.68 L460.6,440.17 L459.66,441.71 L458.55,443.49 L457.12,445.38 L457.12,445.38 L429.24,481.06 L419.89,493.1 L419.89,493.1 L418.22,495.25 L416.87,497.16 L415.86,498.93 L414.71,501.13 L413.94,502.99 L413.55,504.57 L413.1,506.42 L412.78,507.74 L412.38,509.47 L412.24,510.7 L411.98,512.19 L411.9,513.48 L411.89,514.42 L411.86,515.47 L411.8,516.73 L411.81,518.36 L411.73,543.46 L411.85,545.55 L411.84,548.24 L411.89,550.7 L411.88,552.6 L411.72,554.66 L411.54,556.6 L411.31,558.39 L410.98,560.29 L410.51,562.18 L409.74,565.23 L408.74,567.71 L408.13,569.21 L407.34,570.77 L404.51,575.3 L404.51,575.3 L395.5,587.22 L395.5,587.22 L377.76,611.14 L324.19,683.33 L317.15,692.81 Z" stroke="#FFFFFF" stroke-width="7" stroke-linejoin="round" stroke-linecap="round" fill="none" />
</svg>
