<svg viewBox="0 0 1000 1000" xmlns="http://www.w3.org/2000/svg" fill="none">
  <!-- Circuit geometry © OpenStreetMap contributors (ODbL) -->
  <path d="M462.65,80.84 L453.66,80.26 L442.46,80 L432.79,80.15 L414.09,81.68 L397.64,84.01 L388.62,86.11 L378.48,89.12 L369.18,92.27 L360.91,96.21 L353.55,100.41 L347.89,104.51 L342.3,109.36 L336.34,115.71 L331.64,122.02 L326.79,129.39 L323.29,136.31 L320.86,142.98 L318.67,149.89 L316.6,158.17 L315.53,165.4 L315.58,171.63 L315.56,181.26 L316.45,191.84 L317.6,201.37 L319.47,210.78 L321.8,219.35 L325.74,232.33 L331.28,248.36 L404.7,466.1 L414.96,496.54 L421.38,515.58 L455.96,617.9 L462.12,634.08 L465.83,644.63 L468,651.3 L470.29,659.75 L471.94,668.06 L473.24,677.21 L473.95,686.87 L474.29,696.15 L474.27,704.95 L473.3,712.8 L470.28,725.54 L467.08,735.12 L463.17,743.53 L456.92,752.81 L451.68,759.2 L445.96,765.15 L438.36,772.1 L430.71,777.77 L379.41,809.11 L364.91,817.96 L353.43,826.96 L348.87,831.19 L345.4,835.73 L342.68,839.81 L339.64,846.4 L337.4,851.18 L335.8,857.42 L334.8,862.39 L334.31,867.57 L334.82,872.96 L335.77,878.34 L337.43,884.27 L339.15,888.84 L341.38,893.56 L344.82,898.89 L348.31,903.62 L352.63,908.22 L357.51,912.02 L362.23,914.86 L367.68,917.43 L375.21,919.34 L380.8,920 L386.72,919.96 L392.27,919.22 L398.85,917.89 L405.55,916.1 L411.35,913.77 L416.52,911.21 L420.75,908.05 L430.68,899.91 L434.97,894.99 L450.29,880.71 L518.64,804.07 L535.04,784.52 L538.82,778.46 L545.95,768.3 L549.93,761.74 L553.46,754.3 L557.33,745.65 L561.22,734.68 L563.91,725.14 L566.01,713.68 L566.68,705.27 L566.47,696.22 L565.76,684.64 L565.13,674.7 L564.02,664.9 L563.01,656.85 L560.79,642.93 L552.05,600.59 L542.59,557.64 L543.29,550.24 L544.22,546.44 L545.46,543.88 L547.84,540.53 L550.52,538.68 L554.5,537.36 L558.82,536.85 L563.83,537.33 L567.02,538.57 L571.04,540.9 L575.63,545.51 L579.11,551.52 L595.38,577.12 L598.97,582.81 L601.9,587.76 L604.23,592.35 L607.26,599.1 L608.69,603.55 L617.78,631.73 L619.67,635.37 L622.1,639.63 L625.92,644.71 L630.1,649.02 L635.75,653.27 L641.32,655.91 L645.5,656.9 L651.91,656.98 L660.32,655.66 L667.8,652.24 L673.72,646.46 L677.66,641.47 L680.14,637.13 L682.1,631.07 L682.72,625.82 L683.6,617.28 L684.04,612.24 L684.47,589.64 L684.09,564.15 L683.44,552.03 L682.32,538.45 L681.1,531.31 L679.19,523.44 L677.41,517.86 L674.88,509.42 L671.66,500.62 L669.43,495.69 L644.25,440.09 L641.48,432.45 L638.7,424.13 L636.81,415.66 L635.44,406.52 L634.96,400.42 L634.89,393.28 L635.84,385.75 L637.23,378.29 L638.68,373.26 L641.85,363.71 L646.19,353.08 L654.19,335.12 L672.1,292.91 L673.98,285.55 L676.31,276.68 L677.42,268.76 L677.96,263.7 L678.26,249.86 L678.22,244.4 L677.68,240.47 L676.55,235.32 L674.81,230.17 L672.54,224.46 L669.93,219.35 L666.6,213.58 L661.72,208.28 L656.59,203.15 L650.8,198.18 L645.17,194.54 L638.92,191.09 L631.27,188.37 L625.04,186.66 L619.28,185.5 L613.81,184.83 L604.65,184.9 L596.83,185.74 L589.59,186.59 L581.24,187.78 L574.84,189.13 L553.92,194.28 L535.07,199.08 L530.74,200 L525.62,200.2 L522.4,200.2 L518.07,199.21 L515.44,197.9 L512.81,195.34 L511.17,192.51 L510.12,189.49 L509.85,185.55 L510.01,181.4 L510.9,178.28 L512.19,175.57 L522.44,158.7 L526.91,149.47 L528.54,144.74 L529.87,140.38 L530.43,135.14 L530.46,131.03 L530.13,125.66 L529.59,121.9 L528.8,118.57 L527.55,114.62 L526.22,111.34 L524.46,108.18 L522.11,104.72 L519.49,101.46 L517.13,98.51 L512.37,94.64 L507.26,91.2 L502.73,88.94 L498.42,87.18 L494.48,85.58 L486.28,82.95 L479.06,81.65 L473.46,81.34 L462.65,80.84 Z" stroke="#FFFFFF" stroke-width="7" stroke-linejoin="round" stroke-linecap="round" fill="none" />
</svg>
