<svg viewBox="0 0 1000 1000" xmlns="http://www.w3.org/2000/svg" fill="none">
  <!-- Circuit geometry: bacinger/f1-circuits (MIT) -->
  <path d="M333.12,432.61 L268.54,210.99 L254.02,158.21 L253.5,151.59 L256.91,145.45 L263.66,138.67 L272.2,133.27 L313.01,102.84 L341.6,82.82 L351.3,80 L358.89,80.48 L450.91,102.92 L455.92,107.52 L457.97,112.61 L458.55,117.37 L457.01,123.18 L451.55,128.75 L399.11,159.66 L391.15,166.28 L384.53,175.88 L382.41,181.69 L379.84,191.38 L380.86,206.87 L481.36,558.27 L486.57,574.01 L493.12,579.58 L500.26,579.74 L507.2,575.86 L511.31,569.17 L512.4,555.61 L523.33,452.46 L524.8,431.88 L522.11,408.07 L517.22,391.53 L510.6,376.6 L459.65,279.75 L457.01,269.02 L458.23,257.31 L461.89,247.06 L470.76,234.8 L509.9,188.31 L515.68,185.97 L522.23,184.92 L532.13,186.86 L540.1,192.34 L544.02,199.12 L574.86,411.63 L576.79,421.15 L581.74,433.01 L586.49,442.38 L597.42,454.32 L612.97,465.13 L716.87,518.56 L725.61,526.88 L735.7,541.32 L745.08,565.7 L746.5,575.7 L744.83,583.77 L741.36,589.26 L734.87,595.15 L623.63,629.13 L616.44,633.01 L606.16,641.48 L595.17,653.59 L587.14,668.52 L583.28,685.71 L569.91,774.73 L571.01,783.04 L575.44,789.25 L582.7,796.36 L593.43,797.73 L602.17,795.95 L606.09,792.89 L675.23,709.19 L685.19,704.11 L695.8,701.85 L709.29,705.08 L720.34,714.92 L728.31,725.98 L731.53,733.89 L734.8,750.11 L734.48,759.39 L732.42,770.13 L727.41,780.86 L713.53,800.07 L643.68,884.17 L628.58,896.92 L615.15,905.88 L604.42,911.04 L587.71,916.93 L571.97,919.92 L552.11,920 L536.56,917.58 L520.88,913.38 L505.4,906.12 L489.91,897.16 L477.19,884.89 L466.59,872.62 L455.28,856 L335.18,439.79 L333.12,432.61 Z" stroke="#FFFFFF" stroke-width="7" stroke-linejoin="round" stroke-linecap="round" fill="none" />
</svg>
