<svg viewBox="0 0 1000 1000" xmlns="http://www.w3.org/2000/svg" fill="none">
  <!-- Circuit geometry © OpenStreetMap contributors (ODbL) -->
  <path d="M499.03,685.62 L671.44,566.42 L850.75,441.7 L859.79,433.14 L866.66,424.76 L871.15,416.65 L874.06,409.15 L876.23,401.03 L876.96,392.92 L876.87,385.57 L876.04,377.49 L873.47,367.46 L861.93,333.75 L768.95,98.58 L766.61,94.78 L764.19,90.65 L761.19,87.42 L756.37,84.24 L750.21,81.51 L744.51,80 L739.37,80.22 L733.94,81.4 L729.26,83.99 L724.37,87.23 L720.72,91.11 L717.18,96.95 L714.24,103.47 L695.5,220.32 L695.34,233.04 L699.36,243.39 L705.56,250.97 L786.11,348.7 L789.82,357.6 L790.66,366.87 L787.76,374.81 L783.25,381.22 L770.74,390.67 L695.37,443.28 L677.47,448.01 L664.85,447.19 L651.87,442.96 L642.81,435.92 L632.38,423.46 L626.46,401.93 L625.07,212.6 L623.29,201.74 L617.59,192.49 L608.49,185.96 L600.57,180.3 L595.1,178.51 L588.94,177.77 L584.17,177.94 L578.87,178.99 L569.15,182.99 L558.71,188.54 L337.43,343.07 L327.62,351.68 L319.31,364.31 L248.85,487.09 L248.21,503.3 L250.18,518.76 L256.94,531.28 L264.97,540.52 L275.06,547 L288.52,551.76 L299.45,551.5 L309.77,549.83 L319.12,544.7 L338.27,531.75 L356.7,518.74 L369.2,509.91 L397.77,490.41 L406.23,484.27 L406.23,484.27 L416.86,471.19 L421.83,459.23 L436.71,382.9 L439.06,372.94 L444.21,363.84 L450.13,355.86 L457.96,348.71 L506.75,312.03 L518.73,308.61 L531.65,308.03 L534.87,309.04 L541.46,311.12 L549.29,317.29 L554.63,325.37 L558.38,334.29 L558.89,346.58 L555.2,358.26 L472.33,496.33 L412.5,596.03 L407.46,601.93 L400.05,606.07 L340.5,601.16 L336.15,600.8 L336.15,600.8 L323.85,601.87 L299.06,604.19 L271.22,611.15 L253.8,617.47 L230.52,629.06 L204.78,648.45 L184.1,668.53 L172.83,682.21 L162.47,698.35 L149.87,717.27 L137.1,744.46 L130.4,770.97 L124.86,801.44 L123.66,819.95 L123.04,836.7 L127.83,880.93 L130.67,898.67 L135.66,908.56 L146.17,917.08 L153.22,920 L161.65,919.63 L168.52,915.55 L222.58,877.9 L273.32,842.55 L278.73,838.78 L281.92,836.57 L283.13,835.77 L286.27,833.51 L290.18,830.81 L293.74,828.37 L297.11,826.07 L299.29,824.48 L302.02,822.52 L304.45,820.6 L306.57,819.02 L307.99,817.75 L311.68,815.15 L462.12,711.14 L499.03,685.62 Z" stroke="#FFFFFF" stroke-width="7" stroke-linejoin="round" stroke-linecap="round" fill="none" />
</svg>
