<svg viewBox="0 0 1000 1000" xmlns="http://www.w3.org/2000/svg" fill="none">
  <!-- Circuit geometry © OpenStreetMap contributors (ODbL) -->
  <path d="M82.36,443.43 L85.1,454.89 L117.05,584.95 L119.95,597.66 L132.42,652.29 L134.01,658.04 L135.65,662.73 L137.58,666.79 L138.87,668.73 L139.75,670.07 L142.31,673.22 L145.34,676.15 L148.57,678.88 L151.43,680.75 L154.67,682.41 L157.9,683.52 L161.53,684.32 L165.25,684.98 L168.23,685.19 L171.94,685 L176.33,684.12 L180.05,682.77 L183.13,681.15 L188.31,678.34 L197.22,670.98 L282.09,613.71 L369.84,552.95 L412.36,523.48 L461.79,489.2 L476.84,478.9 L558.79,421.58 L634.04,371.21 L662.38,353.54 L671.53,347.83 L677.75,344.45 L683.23,341.77 L689.44,339.18 L691.85,338.38 L694.83,337.53 L697.48,336.89 L700.24,336.37 L703.17,336.37 L706.5,336.83 L708.83,337.38 L711.89,338.07 L716.72,339.52 L721.4,343.45 L723.81,345.43 L726.12,347.77 L727.63,349.62 L728.91,351.53 L729.92,353.31 L730.99,355.35 L732.01,357.62 L732.67,360.31 L733.09,363.01 L733.22,365.66 L733.27,370.2 L733.16,373.38 L732.73,376.75 L731.97,379.93 L731.39,381.84 L730.36,384.07 L729.23,385.99 L728.03,387.71 L726.56,389.55 L725.24,391.13 L713.46,404.01 L710.69,406.77 L708.17,409.54 L704.91,413.49 L701.53,418.18 L699.48,421.81 L697.76,425.26 L696.05,428.93 L694.19,433.22 L692.52,437.7 L691.37,441.2 L690.21,445.65 L689.44,450.71 L688.97,456.09 L688.3,462.79 L688.02,468.05 L688.21,473.6 L688.89,478.98 L689.8,485.16 L690.98,490.15 L692.65,495.49 L694.49,499.79 L696.86,504.19 L699.97,508.69 L703.98,513.88 L708.16,518.32 L711.85,521.53 L716.2,524.61 L720.92,527.12 L726.27,529.34 L732.24,531.08 L737.84,532.54 L744.64,534.76 L751.18,537.52 L757.14,541.22 L762.51,545.36 L767.23,549.65 L771.69,554.3 L775.04,558.45 L777.47,561.88 L779.69,565.57 L781.53,569.09 L782.73,572.17 L783.84,576.64 L784.29,580.06 L784.25,583.56 L783.88,588.12 L783.34,592.36 L782.64,596.2 L781.63,599.28 L780.25,602.41 L778.69,605.23 L776.54,608.17 L774.27,610.98 L771.68,613.66 L767.9,616.7 L763.42,619.74 L758.98,621.92 L754.25,623.51 L750.31,624.46 L746.22,624.85 L742.04,624.97 L737.51,624.64 L733.23,623.92 L730.13,623.02 L727.3,621.83 L724.74,620.41 L722.07,618.46 L719.44,615.96 L716.67,612.54 L714.68,609.2 L713.35,606.56 L712.94,605.73 L711.25,601.78 L709.93,597.53 L708.83,593.13 L707.85,588.23 L706.55,581.12 L704.96,573.29 L703.7,568.23 L702.08,563.44 L700.51,559.62 L698.78,555.51 L697.07,552.13 L694.89,548.2 L692.61,544.63 L689.32,540.85 L687.7,539.01 L685.45,536.42 L681.5,532.51 L677.73,529.24 L672.76,525.36 L666,520.77 L656.32,514.64 L645.98,508.79 L638.87,505.81 L634.59,504.51 L630.38,503.45 L625.51,502.57 L620,502.18 L614.62,502.55 L610.57,503.21 L607.42,504.29 L603.7,505.84 L598.79,508.25 L592.16,511.96 L574.64,524.06 L567.83,528.95 L561.47,534.16 L559.53,536.14 L557.46,538.57 L555.51,541.61 L553.7,544.89 L552.4,548.18 L551.22,551.94 L550.61,555.94 L550.24,560.53 L549.92,564.89 L550.09,569.27 L550.46,572.53 L551.42,577.17 L552.48,580.35 L553.75,584.04 L555.19,587.92 L557.27,592.77 L577.35,638.71 L582.13,648.14 L587.56,657.01 L589.38,659.53 L592.02,663.21 L592.98,664.54 L598.38,670.88 L603.47,676.42 L609.49,681.86 L615.22,686.54 L623.07,691.88 L631.95,696.81 L640.92,700.72 L651.02,704.55 L658.35,706.6 L666.24,708.23 L675.1,709.42 L685.75,709.58 L696.49,708.88 L704.78,708.17 L709.38,707.56 L713.7,706.72 L717.59,705.7 L723.19,704.04 L728.05,702.2 L732.98,700.02 L738.92,697.07 L744.19,693.97 L749.05,690.47 L755.47,685.4 L763.92,678.46 L815.96,633.16 L840.2,611.81 L848.98,603.45 L858.09,594.04 L873.77,576.25 L879.61,570.44 L892.51,556.41 L912.49,533.85 L914.01,531.8 L915.09,529.88 L916.75,526.82 L917.94,523.47 L918.86,520.02 L919.41,516.78 L919.87,513.06 L920,509.11 L919.82,503.57 L919.2,494.3 L918.65,488.09 L917.76,482.36 L916.18,474.07 L913.74,464.83 L910.06,453.92 L904.15,439.84 L898.28,428.97 L890.6,417.23 L874.93,394.29 L840.87,344.49 L835.83,337.93 L833.47,335.5 L830.87,333.01 L827.79,330.53 L825.19,328.72 L821.1,326.61 L808.98,321.65 L789.59,313.71 L770.43,305.86 L746.43,296.03 L739.92,293.49 L735.18,292.08 L730.35,291.2 L724.98,290.53 L720.47,290.42 L716.26,290.73 L712.87,291.45 L707.27,292.78 L702.91,294.69 L698.92,296.61 L677.2,308.94 L658.81,318.9 L648.55,324.79 L639.55,330.66 L578.87,370.45 L574.25,373.59 L569.39,376.23 L564.16,378.44 L559.78,379.72 L554.76,381.3 L549.4,382.41 L543.94,383.04 L537.42,383.14 L451.13,381.09 L381.47,377.61 L334.19,374.12 L296.55,371.27 L252.51,366.63 L189.48,360.34 L174.81,358.34 L164.74,357.29 L157.39,357.02 L151.24,357.24 L145.38,357.85 L138.99,359.19 L137.36,359.64 L132.16,361.07 L124.68,364.01 L115.94,368.42 L109.54,372.31 L103.92,376.68 L99.1,381.18 L95.33,385.44 L91.83,389.93 L88.41,394.75 L86.08,398.61 L84,402.56 L82.21,406.77 L81.21,410.4 L80.71,413.86 L80.19,418.25 L80,422.31 L80.04,427.41 L80.47,432.64 L81.25,437.62 L82.36,443.43 Z" stroke="#FFFFFF" stroke-width="7" stroke-linejoin="round" stroke-linecap="round" fill="none" />
</svg>
