<svg viewBox="0 0 1000 1000" xmlns="http://www.w3.org/2000/svg" fill="none">
  <!-- Circuit geometry: bacinger/f1-circuits (MIT) -->
  <path d="M325.94,528.09 L108.94,545.96 L98.97,545.16 L89.97,540.65 L83.78,534.13 L80.4,525.27 L80,515.29 L83.62,504.83 L92.06,496.94 L103.48,493.32 L116.82,495.98 L141.58,504.83 L149.87,503.46 L156.86,496.54 L159.11,488.09 L156.86,476.98 L149.46,465.71 L132.58,445.02 L125.42,432.39 L120.76,417.42 L118.51,402.36 L118.51,385.3 L122.61,343.28 L129.2,323.56 L139.58,303.44 L150.03,290.48 L166.11,275.91 L182.99,264.8 L200.68,258.28 L300.05,225.85 L374.42,196.55 L424.18,174.97 L456.26,160.41 L467.36,155.9 L475.64,156.22 L482.79,160.73 L485.37,169.74 L499.2,246.93 L507.64,286.7 L519.54,334.91 L528.22,353.51 L537.95,366.79 L554.67,380.15 L571.23,389 L587.71,393.11 L603.87,393.83 L622.29,391.01 L641.1,383.69 L654.44,374.11 L680.49,346.18 L693.28,338.45 L713.38,331.53 L730.5,330.97 L747.39,333.22 L761.05,338.86 L773.27,348.6 L919.2,515.05 L920,523.18 L916.62,532.44 L891.78,588.22 L884.3,593.45 L875.46,595.54 L742.24,603.27 L617.14,617.92 L548.56,629.19 L542.05,634.5 L539.96,643.28 L545.75,653.09 L594.63,680.14 L605.32,690.93 L612.8,706.86 L616.58,723.44 L616.01,747.11 L612.8,766.99 L608.38,786.39 L596.72,811.18 L579.27,836.54 L569.71,842.57 L560.54,844.1 L550.17,842.17 L541.89,836.78 L389.05,710.81 L378.36,706.86 L364.61,706.06 L349.58,709.84 L293.86,738.42 L278.99,743.08 L261.3,745.5 L245.78,745.34 L216.84,740.11 L197.14,731.98 L184.36,721.83 L167.23,699.3 L161.2,682.39 L160.32,672.09 L167.47,660.5 L182.83,654.14 L788.95,542.66 L797.63,535.01 L803.99,520.36 L800.77,508.13 L789.75,496.7 L771.67,493.88 L325.94,528.09 Z" stroke="#FFFFFF" stroke-width="7" stroke-linejoin="round" stroke-linecap="round" fill="none" />
</svg>
